<?xml version="1.0" encoding="UTF-8"?> <!-- Generator: Adobe Illustrator 16.0.0, SVG Export Plug-In . SVG Version: 6.00 Build 0) --> <svg xmlns="http://www.w3.org/2000/svg" xmlns:xlink="http://www.w3.org/1999/xlink" id="Layer_1" x="0px" y="0px" width="999.875px" height="139.982px" viewBox="0 0 999.875 139.982" xml:space="preserve"> <g id="Frase_1" display="none"> <path display="inline" stroke="#000000" stroke-width="3" stroke-miterlimit="10" d="M598.231,10.982H40.239 c-16.571,0-30.004,13.434-30.004,30.005l0,0c0,16.57,13.434,30.004,30.004,30.004h557.994L598.231,10.982L598.231,10.982z"></path> <path display="inline" fill="#FFFFFF" stroke="#000000" stroke-width="3" stroke-miterlimit="10" d="M244.235,131h715.992 c16.571,0,30.007-13.434,30.007-30.005l0,0c0-16.57-13.436-30.004-30.007-30.004H244.235V131z"></path> <g display="inline"> <path fill="#FFFFFF" d="M41.852,47.253l1.933-1.633c0.6,1.389,1.261,2.385,1.986,2.989c0.724,0.604,1.605,0.907,2.645,0.907 c1.329,0,2.393-0.386,3.192-1.154c0.799-0.771,1.199-1.793,1.199-3.072c0-0.799-0.192-1.464-0.577-1.993 c-0.385-0.528-1.336-1.209-2.854-2.038c-1.958-1.067-3.272-2.034-3.941-2.898s-1.004-1.911-1.004-3.14 c0-1.879,0.604-3.418,1.813-4.615c1.209-1.199,2.772-1.798,4.69-1.798c1.269,0,2.38,0.275,3.334,0.832 c0.954,0.555,1.796,1.41,2.525,2.568l-1.903,1.633c-0.479-0.929-1.039-1.616-1.679-2.066c-0.639-0.45-1.378-0.674-2.218-0.674 c-1.159,0-2.098,0.347-2.817,1.042c-0.719,0.692-1.079,1.586-1.079,2.675c0,1.458,1.114,2.782,3.342,3.971 c0.39,0.21,0.689,0.37,0.899,0.479c1.568,0.889,2.645,1.771,3.229,2.65s0.876,1.983,0.876,3.313c0,2.026-0.625,3.639-1.873,4.833 c-1.249,1.192-2.947,1.791-5.095,1.791c-1.568,0-2.912-0.392-4.031-1.169C43.326,49.906,42.461,48.762,41.852,47.253z"></path> <path fill="#FFFFFF" d="M57.834,44.976c0-2.248,0.739-4.128,2.218-5.644c1.479-1.514,3.317-2.27,5.515-2.27 c1.988,0,3.631,0.627,4.93,1.88c1.298,1.254,1.948,2.813,1.948,4.683c0,2.438-0.717,4.418-2.15,5.942 c-1.433,1.522-3.284,2.285-5.552,2.285c-2.088,0-3.762-0.629-5.021-1.89C58.463,48.707,57.834,47.043,57.834,44.976z M65.447,38.997c-1.509,0-2.755,0.559-3.739,1.671c-0.984,1.114-1.476,2.53-1.476,4.248c0,1.509,0.427,2.727,1.281,3.649 s1.98,1.386,3.379,1.386c1.499,0,2.737-0.554,3.717-1.663c0.979-1.107,1.468-2.518,1.468-4.226c0-1.479-0.432-2.692-1.296-3.644 C67.917,39.471,66.806,38.997,65.447,38.997z"></path> <path fill="#FFFFFF" d="M83.303,51.27l1.109-8.422c0.03-0.21,0.053-0.419,0.067-0.631c0.015-0.21,0.022-0.413,0.022-0.612 c0-0.829-0.212-1.456-0.637-1.881c-0.425-0.426-1.052-0.639-1.881-0.639c-1.079,0-1.94,0.438-2.585,1.313 c-0.645,0.875-1.082,2.186-1.311,3.934l-0.929,6.938h-2.353l1.828-13.712h2.278l-0.315,2.111c0.649-0.879,1.359-1.532,2.128-1.963 c0.77-0.429,1.608-0.644,2.518-0.644c0.919,0,1.698,0.227,2.338,0.682c0.639,0.455,1.064,1.086,1.274,1.896 c0.689-0.859,1.441-1.503,2.255-1.935c0.814-0.429,1.681-0.644,2.6-0.644c1.169,0,2.096,0.357,2.78,1.079 c0.685,0.719,1.027,1.697,1.027,2.938c0,0.29-0.035,0.749-0.105,1.378c-0.01,0.07-0.015,0.12-0.015,0.15l-1.139,8.662h-2.398 l1.109-8.407c0.03-0.21,0.053-0.42,0.067-0.629c0.015-0.21,0.022-0.42,0.022-0.629c0-0.829-0.212-1.456-0.637-1.881 c-0.425-0.426-1.052-0.639-1.881-0.639c-1.109,0-1.976,0.419-2.6,1.261c-0.625,0.839-1.057,2.168-1.296,3.984L85.73,51.27H83.303z "></path> <path fill="#FFFFFF" d="M98.251,44.976c0-2.248,0.739-4.128,2.218-5.644c1.479-1.514,3.317-2.27,5.515-2.27 c1.988,0,3.631,0.627,4.93,1.88c1.298,1.254,1.948,2.813,1.948,4.683c0,2.438-0.717,4.418-2.15,5.942 c-1.433,1.522-3.284,2.285-5.552,2.285c-2.088,0-3.762-0.629-5.021-1.89C98.88,48.707,98.251,47.043,98.251,44.976z M105.864,38.997c-1.509,0-2.755,0.559-3.739,1.671c-0.984,1.114-1.476,2.53-1.476,4.248c0,1.509,0.427,2.727,1.281,3.649 s1.98,1.386,3.379,1.386c1.499,0,2.737-0.554,3.717-1.663c0.979-1.107,1.468-2.518,1.468-4.226c0-1.479-0.432-2.692-1.296-3.644 C108.334,39.471,107.222,38.997,105.864,38.997z"></path> <path fill="#FFFFFF" d="M114.173,49.276l1.529-1.813c0.5,0.811,1.066,1.416,1.701,1.821c0.634,0.404,1.336,0.606,2.105,0.606 c0.859,0,1.541-0.197,2.045-0.594c0.504-0.395,0.757-0.926,0.757-1.596c0-0.75-0.709-1.449-2.128-2.098 c-0.359-0.17-0.645-0.312-0.854-0.419c-1.309-0.629-2.178-1.215-2.607-1.753c-0.43-0.54-0.645-1.221-0.645-2.038 c0-1.261,0.464-2.295,1.394-3.109c0.93-0.813,2.123-1.221,3.582-1.221c0.919,0,1.769,0.17,2.547,0.509 c0.779,0.34,1.484,0.844,2.113,1.514l-1.438,1.725c-0.42-0.561-0.915-0.981-1.484-1.268s-1.204-0.427-1.903-0.427 c-0.689,0-1.274,0.197-1.753,0.592c-0.479,0.396-0.719,0.862-0.719,1.401c0,0.739,0.849,1.474,2.547,2.203l0.24,0.104 c1.349,0.58,2.253,1.154,2.712,1.726c0.459,0.567,0.689,1.313,0.689,2.231c0,1.391-0.45,2.482-1.349,3.282 c-0.899,0.799-2.128,1.199-3.687,1.199c-1.159,0-2.178-0.21-3.057-0.629C115.632,50.805,114.853,50.156,114.173,49.276z"></path> <path fill="#FFFFFF" d="M137.716,37.558h2.397l-0.794,6.067c-0.02,0.16-0.05,0.392-0.09,0.689 c-0.21,1.526-0.315,2.538-0.315,3.025c0,0.74,0.255,1.314,0.764,1.726c0.51,0.41,1.229,0.614,2.158,0.614 c1.229,0,2.123-0.33,2.682-0.989c0.56-0.659,0.984-2.104,1.274-4.331l0.884-6.804h2.368l-0.929,6.968 c-0.01,0.108-0.03,0.27-0.06,0.479c-0.33,2.508-0.929,4.228-1.798,5.155c-0.52,0.549-1.167,0.969-1.94,1.259 c-0.774,0.29-1.646,0.437-2.615,0.437c-1.569,0-2.825-0.389-3.769-1.162c-0.944-0.774-1.416-1.8-1.416-3.079 c0-0.49,0.115-1.648,0.345-3.479l0.03-0.209L137.716,37.558z"></path> <path fill="#FFFFFF" d="M151.451,51.27l1.798-13.712h2.278l-0.314,2.231c0.769-0.929,1.573-1.616,2.413-2.061 c0.839-0.444,1.758-0.667,2.757-0.667c1.309,0,2.345,0.357,3.109,1.079c0.764,0.72,1.146,1.697,1.146,2.938 c0,0.22-0.01,0.459-0.03,0.719c-0.021,0.262-0.05,0.529-0.09,0.811l-1.139,8.662h-2.397l1.079-8.407 c0.01-0.07,0.02-0.165,0.03-0.285c0.06-0.49,0.09-0.813,0.09-0.974c0-0.819-0.25-1.444-0.75-1.874 c-0.5-0.431-1.229-0.646-2.188-0.646c-1.259,0-2.273,0.447-3.042,1.341c-0.769,0.896-1.269,2.195-1.499,3.903l-0.929,6.938h-2.322 V51.27L151.451,51.27z"></path> <path fill="#FFFFFF" d="M180.021,37.558h2.353l-1.798,13.712h-2.397l0.33-2.055c-0.66,0.892-1.396,1.548-2.21,1.973 s-1.741,0.637-2.78,0.637c-1.758,0-3.187-0.64-4.286-1.918c-1.099-1.279-1.648-2.942-1.648-4.99c0-2.268,0.669-4.144,2.008-5.627 c1.339-1.481,3.022-2.225,5.05-2.225c1.219,0,2.243,0.27,3.072,0.809s1.474,1.354,1.933,2.442L180.021,37.558z M174.342,49.635 c1.338,0,2.47-0.555,3.394-1.662c0.924-1.109,1.386-2.487,1.386-4.138c0-1.389-0.362-2.513-1.086-3.372 c-0.725-0.857-1.671-1.289-2.84-1.289c-1.519,0-2.762,0.54-3.731,1.618c-0.969,1.079-1.454,2.453-1.454,4.121 c0,1.409,0.402,2.548,1.207,3.417C172.023,49.2,173.063,49.635,174.342,49.635z"></path> <path fill="#FFFFFF" d="M206.411,44.811l-10.984,0.015v0.24c0,1.469,0.375,2.625,1.124,3.469s1.773,1.266,3.072,1.266 c0.809,0,1.553-0.193,2.233-0.584c0.679-0.39,1.338-0.992,1.978-1.813l1.648,1.349c-0.799,1.039-1.678,1.816-2.638,2.33 c-0.959,0.517-2.003,0.772-3.132,0.772c-2.048,0-3.674-0.617-4.878-1.853c-1.204-1.232-1.806-2.898-1.806-4.998 c0-2.288,0.699-4.183,2.098-5.687c1.398-1.503,3.152-2.255,5.26-2.255c1.918,0,3.407,0.584,4.466,1.753s1.588,2.813,1.588,4.93 c0,0.29-0.002,0.51-0.007,0.66S206.421,44.691,206.411,44.811z M204.133,42.863c-0.02-1.239-0.357-2.193-1.012-2.862 c-0.655-0.669-1.576-1.004-2.765-1.004c-1.179,0-2.195,0.352-3.05,1.049c-0.854,0.699-1.411,1.641-1.671,2.817H204.133z"></path> <path fill="#FFFFFF" d="M217.179,51.27l1.109-8.422c0.03-0.21,0.053-0.419,0.067-0.631c0.015-0.21,0.022-0.413,0.022-0.612 c0-0.829-0.212-1.456-0.637-1.881c-0.425-0.426-1.052-0.639-1.881-0.639c-1.079,0-1.94,0.438-2.585,1.313 c-0.645,0.875-1.082,2.186-1.311,3.934l-0.929,6.938h-2.353l1.828-13.712h2.278l-0.315,2.111c0.649-0.879,1.359-1.532,2.128-1.963 c0.77-0.429,1.608-0.644,2.518-0.644c0.919,0,1.698,0.227,2.338,0.682c0.639,0.455,1.064,1.086,1.274,1.896 c0.689-0.859,1.441-1.503,2.255-1.935c0.814-0.429,1.681-0.644,2.6-0.644c1.169,0,2.096,0.357,2.78,1.079 c0.685,0.719,1.027,1.697,1.027,2.938c0,0.29-0.035,0.749-0.105,1.378c-0.01,0.07-0.015,0.12-0.015,0.15l-1.139,8.662h-2.398 l1.109-8.407c0.03-0.21,0.053-0.42,0.067-0.629c0.015-0.21,0.022-0.42,0.022-0.629c0-0.829-0.212-1.456-0.637-1.881 c-0.425-0.426-1.052-0.639-1.881-0.639c-1.109,0-1.976,0.419-2.6,1.261c-0.625,0.839-1.057,2.168-1.296,3.984l-0.914,6.938 L217.179,51.27L217.179,51.27L217.179,51.27z"></path> <path fill="#FFFFFF" d="M231.453,57.953l2.667-20.396h2.398l-0.315,2.143c0.669-0.899,1.411-1.563,2.226-1.993 c0.814-0.429,1.73-0.644,2.75-0.644c1.729,0,3.147,0.642,4.256,1.925c1.109,1.284,1.664,2.935,1.664,4.953 c0,2.228-0.667,4.094-2,5.597c-1.334,1.504-3,2.255-4.998,2.255c-1.229,0-2.253-0.267-3.072-0.802 c-0.819-0.534-1.449-1.341-1.888-2.42l-1.229,9.381L231.453,57.953L231.453,57.953z M240.354,39.296 c-1.349,0-2.485,0.554-3.409,1.656c-0.924,1.104-1.386,2.475-1.386,4.113c0,1.379,0.365,2.493,1.094,3.342 s1.673,1.274,2.832,1.274c1.529,0,2.777-0.532,3.747-1.598c0.969-1.063,1.454-2.425,1.454-4.083c0-1.396-0.402-2.533-1.207-3.4 C242.674,39.731,241.633,39.296,240.354,39.296z"></path> <path fill="#FFFFFF" d="M258.18,39.791c-0.26-0.129-0.524-0.229-0.794-0.3c-0.27-0.07-0.54-0.104-0.81-0.104 c-1.049,0-1.88,0.438-2.495,1.316c-0.614,0.879-1.046,2.243-1.296,4.091l-0.869,6.476h-2.323l1.798-13.712h2.368l-0.375,2.173 c0.629-0.931,1.267-1.605,1.911-2.03c0.645-0.425,1.351-0.637,2.121-0.637c0.22,0,0.447,0.023,0.682,0.075 c0.235,0.05,0.467,0.125,0.697,0.225L258.18,39.791z"></path> <path fill="#FFFFFF" d="M272.664,44.811l-10.984,0.015v0.24c0,1.469,0.375,2.625,1.124,3.469c0.749,0.844,1.773,1.266,3.072,1.266 c0.809,0,1.553-0.193,2.233-0.584c0.679-0.39,1.338-0.992,1.978-1.813l1.648,1.349c-0.799,1.039-1.678,1.816-2.638,2.33 c-0.959,0.517-2.003,0.772-3.132,0.772c-2.048,0-3.674-0.617-4.878-1.853c-1.204-1.232-1.806-2.898-1.806-4.998 c0-2.288,0.699-4.183,2.098-5.687c1.398-1.503,3.152-2.255,5.26-2.255c1.918,0,3.407,0.584,4.466,1.753s1.588,2.813,1.588,4.93 c0,0.29-0.002,0.51-0.007,0.66S272.673,44.691,272.664,44.811z M270.386,42.863c-0.02-1.239-0.357-2.193-1.012-2.862 c-0.655-0.669-1.576-1.004-2.765-1.004c-1.179,0-2.195,0.352-3.05,1.049c-0.854,0.699-1.411,1.641-1.671,2.817H270.386z"></path> <path fill="#FFFFFF" d="M273.885,49.276l1.529-1.813c0.5,0.811,1.066,1.416,1.701,1.821c0.634,0.404,1.336,0.606,2.105,0.606 c0.859,0,1.541-0.197,2.045-0.594c0.504-0.395,0.757-0.926,0.757-1.596c0-0.75-0.709-1.449-2.128-2.098 c-0.359-0.17-0.645-0.312-0.854-0.419c-1.309-0.629-2.178-1.215-2.607-1.753c-0.43-0.54-0.645-1.221-0.645-2.038 c0-1.261,0.464-2.295,1.394-3.109c0.93-0.813,2.123-1.221,3.582-1.221c0.919,0,1.769,0.17,2.547,0.509 c0.779,0.34,1.484,0.844,2.113,1.514l-1.438,1.725c-0.42-0.561-0.915-0.981-1.484-1.268c-0.569-0.285-1.204-0.427-1.903-0.427 c-0.689,0-1.274,0.197-1.753,0.592c-0.479,0.396-0.719,0.862-0.719,1.401c0,0.739,0.849,1.474,2.547,2.203l0.24,0.104 c1.349,0.58,2.253,1.154,2.712,1.726c0.459,0.567,0.689,1.313,0.689,2.231c0,1.391-0.45,2.482-1.349,3.282 c-0.899,0.799-2.128,1.199-3.687,1.199c-1.159,0-2.178-0.21-3.057-0.629C275.343,50.805,274.564,50.156,273.885,49.276z"></path> <path fill="#FFFFFF" d="M299.458,37.558h2.353l-1.798,13.712h-2.397l0.33-2.055c-0.66,0.892-1.396,1.548-2.21,1.973 s-1.741,0.637-2.78,0.637c-1.758,0-3.187-0.64-4.286-1.918c-1.099-1.279-1.648-2.942-1.648-4.99c0-2.268,0.669-4.144,2.008-5.627 c1.339-1.481,3.022-2.225,5.05-2.225c1.219,0,2.243,0.27,3.072,0.809s1.474,1.354,1.933,2.442L299.458,37.558z M293.779,49.635 c1.338,0,2.47-0.555,3.394-1.662c0.924-1.109,1.386-2.487,1.386-4.138c0-1.389-0.362-2.513-1.086-3.372 c-0.725-0.857-1.671-1.289-2.84-1.289c-1.519,0-2.762,0.54-3.731,1.618c-0.969,1.079-1.454,2.453-1.454,4.121 c0,1.409,0.402,2.548,1.207,3.417C291.46,49.2,292.5,49.635,293.779,49.635z"></path> <path fill="#FFFFFF" d="M326.252,28.042h2.383l-3.07,23.229h-2.385l0.33-2.055c-0.659,0.892-1.396,1.548-2.21,1.973 c-0.813,0.425-1.746,0.637-2.794,0.637c-1.749,0-3.172-0.64-4.271-1.918c-1.101-1.279-1.648-2.942-1.648-4.99 c0-2.268,0.669-4.144,2.008-5.627c1.339-1.481,3.022-2.225,5.05-2.225c1.221,0,2.243,0.27,3.072,0.809 c0.829,0.54,1.475,1.354,1.935,2.442L326.252,28.042z M319.344,49.635c1.329,0,2.458-0.555,3.389-1.662 c0.929-1.109,1.394-2.487,1.394-4.138c0-1.389-0.362-2.513-1.086-3.372c-0.724-0.857-1.671-1.289-2.839-1.289 c-1.521,0-2.757,0.537-3.717,1.611c-0.959,1.074-1.438,2.45-1.438,4.128c0,1.409,0.397,2.548,1.191,3.417 S318.065,49.635,319.344,49.635z"></path> <path fill="#FFFFFF" d="M342.939,44.811l-10.984,0.015v0.24c0,1.469,0.375,2.625,1.124,3.469s1.771,1.266,3.072,1.266 c0.809,0,1.553-0.193,2.231-0.584c0.679-0.39,1.338-0.992,1.979-1.813l1.646,1.349c-0.799,1.039-1.678,1.816-2.638,2.33 c-0.959,0.517-2.003,0.772-3.132,0.772c-2.048,0-3.674-0.617-4.878-1.853c-1.204-1.232-1.808-2.898-1.808-4.998 c0-2.288,0.699-4.183,2.1-5.687c1.396-1.503,3.15-2.255,5.26-2.255c1.918,0,3.407,0.584,4.466,1.753 c1.061,1.169,1.588,2.813,1.588,4.93c0,0.29-0.002,0.51-0.007,0.66C342.957,44.556,342.949,44.691,342.939,44.811z M340.662,42.863c-0.021-1.239-0.357-2.193-1.012-2.862c-0.655-0.669-1.576-1.004-2.767-1.004c-1.179,0-2.193,0.352-3.05,1.049 c-0.854,0.699-1.411,1.641-1.671,2.817H340.662z"></path> </g> <g display="inline"> <path d="M271.171,111.77l2.877-21.939h3.896c1.738,0,3.002,0.1,3.792,0.293c0.789,0.195,1.463,0.527,2.023,0.996 c0.549,0.48,0.966,1.052,1.251,1.717c0.285,0.664,0.427,1.41,0.427,2.24c0,1.398-0.352,2.557-1.057,3.479 c-0.704,0.919-1.691,1.508-2.959,1.768c1.239,0.35,2.183,0.938,2.833,1.762c0.649,0.824,0.974,1.848,0.974,3.064 c0,1.158-0.227,2.195-0.682,3.116c-0.455,0.919-1.106,1.669-1.956,2.246c-0.659,0.462-1.479,0.784-2.458,0.976 c-0.979,0.188-2.628,0.285-4.945,0.285L271.171,111.77L271.171,111.77z M274.048,109.432h1.544c1.499,0,2.557-0.042,3.177-0.127 c0.619-0.087,1.154-0.229,1.604-0.43c0.699-0.309,1.249-0.794,1.648-1.453c0.399-0.658,0.599-1.418,0.599-2.275 c0-0.67-0.137-1.262-0.412-1.771c-0.275-0.509-0.672-0.914-1.191-1.213c-0.379-0.22-0.822-0.377-1.326-0.473 c-0.504-0.094-1.276-0.145-2.315-0.145h-0.839h-1.438L274.048,109.432z M275.367,99.316h1.753c1.049,0,1.831-0.039,2.345-0.119 c0.514-0.08,0.972-0.205,1.371-0.375c0.639-0.3,1.136-0.744,1.491-1.334c0.354-0.59,0.532-1.273,0.532-2.053 c0-0.602-0.122-1.136-0.367-1.604c-0.245-0.47-0.602-0.844-1.071-1.124c-0.32-0.18-0.697-0.312-1.131-0.396 c-0.435-0.084-1.102-0.127-2-0.127h-0.854h-1.109L275.367,99.316z"></path> <path d="M296.114,100.291c-0.26-0.13-0.524-0.229-0.794-0.301c-0.27-0.069-0.54-0.104-0.81-0.104c-1.049,0-1.88,0.439-2.495,1.318 c-0.614,0.879-1.046,2.242-1.296,4.091l-0.869,6.476h-2.323l1.798-13.712h2.368l-0.375,2.173c0.629-0.931,1.267-1.605,1.911-2.03 c0.645-0.425,1.351-0.637,2.121-0.637c0.22,0,0.447,0.022,0.682,0.075c0.235,0.05,0.467,0.125,0.697,0.225L296.114,100.291z"></path> <path d="M297.681,111.77l1.813-13.712h2.383l-1.813,13.712H297.681z M299.644,91.568c0-0.439,0.162-0.818,0.487-1.139 c0.324-0.319,0.711-0.479,1.161-0.479c0.459,0,0.847,0.156,1.162,0.472c0.314,0.314,0.472,0.696,0.472,1.146 c0,0.471-0.157,0.865-0.472,1.185c-0.315,0.32-0.702,0.479-1.162,0.479c-0.45,0-0.837-0.162-1.161-0.486 C299.806,92.421,299.644,92.029,299.644,91.568z"></path> <path d="M304.687,111.77l1.798-13.712h2.276l-0.313,2.231c0.769-0.93,1.573-1.616,2.413-2.061 c0.839-0.445,1.758-0.667,2.757-0.667c1.309,0,2.345,0.357,3.109,1.079c0.764,0.719,1.146,1.696,1.146,2.938 c0,0.219-0.01,0.459-0.03,0.719c-0.021,0.262-0.05,0.529-0.09,0.811l-1.139,8.662h-2.397l1.079-8.406 c0.01-0.07,0.021-0.166,0.03-0.285c0.06-0.49,0.09-0.813,0.09-0.975c0-0.818-0.25-1.443-0.75-1.873 c-0.5-0.432-1.229-0.646-2.188-0.646c-1.261,0-2.273,0.447-3.042,1.343c-0.771,0.896-1.271,2.194-1.499,3.902l-0.931,6.938 L304.687,111.77L304.687,111.77z"></path> <path d="M334.426,88.542h2.383l-3.07,23.229h-2.385l0.33-2.055c-0.657,0.891-1.396,1.548-2.21,1.973 c-0.813,0.424-1.746,0.637-2.794,0.637c-1.749,0-3.172-0.64-4.271-1.918c-1.101-1.279-1.648-2.942-1.648-4.99 c0-2.268,0.669-4.145,2.008-5.627c1.341-1.482,3.022-2.226,5.052-2.226c1.219,0,2.241,0.27,3.07,0.81 c0.829,0.539,1.475,1.354,1.935,2.441L334.426,88.542z M327.518,110.137c1.329,0,2.458-0.557,3.389-1.664 c0.929-1.109,1.394-2.487,1.394-4.138c0-1.389-0.36-2.513-1.086-3.372c-0.724-0.857-1.671-1.289-2.839-1.289 c-1.519,0-2.757,0.537-3.717,1.611c-0.959,1.074-1.438,2.45-1.438,4.129c0,1.408,0.397,2.547,1.191,3.416 S326.239,110.137,327.518,110.137z"></path> <path d="M350.349,98.058h2.354l-1.798,13.712h-2.397l0.33-2.055c-0.66,0.891-1.396,1.548-2.21,1.973 c-0.813,0.424-1.741,0.637-2.78,0.637c-1.758,0-3.187-0.64-4.286-1.918c-1.099-1.279-1.646-2.942-1.646-4.99 c0-2.268,0.669-4.145,2.008-5.627s3.022-2.226,5.05-2.226c1.22,0,2.243,0.27,3.072,0.81c0.829,0.539,1.474,1.354,1.933,2.441 L350.349,98.058z M344.669,110.137c1.338,0,2.47-0.557,3.396-1.664c0.924-1.109,1.386-2.487,1.386-4.138 c0-1.389-0.362-2.513-1.086-3.372c-0.727-0.857-1.671-1.289-2.84-1.289c-1.521,0-2.764,0.54-3.731,1.619 c-0.969,1.078-1.454,2.453-1.454,4.121c0,1.408,0.402,2.547,1.207,3.416S343.39,110.137,344.669,110.137z"></path> <path d="M363.693,111.77l1.107-8.422c0.03-0.21,0.055-0.422,0.067-0.631c0.015-0.211,0.021-0.413,0.021-0.613 c0-0.828-0.212-1.455-0.637-1.881s-1.052-0.639-1.881-0.639c-1.079,0-1.94,0.438-2.585,1.313 c-0.646,0.874-1.082,2.186-1.313,3.934l-0.929,6.938h-2.353l1.827-13.712h2.277l-0.313,2.111c0.647-0.88,1.357-1.532,2.128-1.964 c0.77-0.429,1.606-0.644,2.518-0.644c0.919,0,1.698,0.228,2.338,0.682c0.641,0.454,1.064,1.087,1.274,1.896 c0.688-0.859,1.439-1.504,2.255-1.936c0.813-0.429,1.681-0.644,2.6-0.644c1.169,0,2.098,0.357,2.78,1.079 c0.687,0.719,1.027,1.696,1.027,2.938c0,0.289-0.035,0.748-0.105,1.378c-0.01,0.069-0.015,0.12-0.015,0.149l-1.14,8.662h-2.397 l1.109-8.406c0.028-0.211,0.053-0.42,0.065-0.63c0.016-0.21,0.022-0.42,0.022-0.63c0-0.828-0.212-1.455-0.639-1.881 c-0.425-0.426-1.052-0.639-1.881-0.639c-1.107,0-1.976,0.42-2.6,1.261c-0.625,0.839-1.059,2.169-1.296,3.984l-0.914,6.938h-2.427 v0.005H363.693z"></path> <path d="M378.642,105.476c0-2.248,0.739-4.128,2.22-5.644c1.479-1.514,3.315-2.271,5.515-2.271c1.988,0,3.631,0.627,4.93,1.88 c1.298,1.254,1.948,2.813,1.948,4.684c0,2.438-0.717,4.418-2.15,5.941c-1.433,1.521-3.282,2.285-5.552,2.285 c-2.088,0-3.762-0.629-5.021-1.89C379.271,109.206,378.642,107.543,378.642,105.476z M386.254,99.496 c-1.509,0-2.755,0.557-3.739,1.672c-0.982,1.113-1.476,2.529-1.476,4.248c0,1.508,0.427,2.727,1.281,3.648 c0.854,0.924,1.979,1.387,3.379,1.387c1.499,0,2.735-0.555,3.717-1.664c0.979-1.106,1.468-2.518,1.468-4.226 c0-1.479-0.432-2.692-1.296-3.644C388.725,99.971,387.613,99.496,386.254,99.496z"></path> <path d="M394.564,109.776l1.527-1.813c0.5,0.812,1.066,1.416,1.701,1.821c0.634,0.404,1.336,0.606,2.105,0.606 c0.857,0,1.541-0.197,2.045-0.594c0.504-0.395,0.757-0.926,0.757-1.596c0-0.75-0.709-1.449-2.128-2.098 c-0.359-0.17-0.646-0.313-0.854-0.42c-1.309-0.629-2.178-1.216-2.605-1.754c-0.432-0.539-0.646-1.221-0.646-2.037 c0-1.262,0.464-2.295,1.396-3.109c0.93-0.814,2.123-1.222,3.582-1.222c0.919,0,1.769,0.17,2.547,0.509 c0.777,0.34,1.482,0.845,2.113,1.514l-1.438,1.726c-0.42-0.562-0.915-0.981-1.484-1.269c-0.567-0.284-1.204-0.427-1.901-0.427 c-0.689,0-1.274,0.197-1.753,0.592c-0.479,0.396-0.721,0.862-0.721,1.401c0,0.739,0.851,1.474,2.549,2.203l0.238,0.104 c1.351,0.579,2.253,1.153,2.712,1.726c0.459,0.567,0.689,1.313,0.689,2.23c0,1.389-0.45,2.482-1.35,3.282 c-0.898,0.799-2.129,1.198-3.688,1.198c-1.159,0-2.178-0.209-3.057-0.629C396.022,111.305,395.243,110.656,394.564,109.776z"></path> </g> <g display="inline"> <path fill="#FFFFFF" d="M360.221,44.496h6.039c-0.01,1.009,0.195,1.659,0.615,1.948c0.299,0.188,0.688,0.302,1.161,0.337 c0.475,0.035,1.971,0.063,4.488,0.083c2.637-0.01,4.221-0.027,4.75-0.052c0.527-0.025,0.947-0.104,1.259-0.232 c0.459-0.188,0.688-0.705,0.688-1.543c0-0.609-0.163-1.017-0.485-1.221c-0.325-0.205-0.987-0.317-1.985-0.337 c-0.77,0-2.398-0.062-4.885-0.182c-2.548-0.118-4.206-0.188-4.978-0.21c-1.499-0.05-2.648-0.19-3.454-0.427 c-0.804-0.234-1.431-0.617-1.88-1.146c-0.77-0.88-1.152-2.35-1.152-4.406c0-2.31,0.438-3.938,1.317-4.885 c0.669-0.739,1.698-1.211,3.087-1.417c1.391-0.205,4.211-0.309,8.469-0.309c3.007,0,5.118,0.085,6.339,0.255 c1.878,0.262,3.167,0.782,3.867,1.566c0.697,0.784,1.049,2.104,1.049,3.964c0,0.17-0.005,0.489-0.017,0.959h-6.039 c-0.02-0.569-0.065-0.959-0.143-1.169c-0.075-0.21-0.222-0.379-0.442-0.51c-0.27-0.16-0.742-0.263-1.423-0.309 c-0.68-0.045-2.118-0.065-4.314-0.065c-2.647,0-4.263,0.083-4.842,0.248c-0.578,0.165-0.867,0.622-0.867,1.371 c0,0.719,0.29,1.158,0.867,1.317c0.479,0.13,2.684,0.254,6.608,0.375c3.307,0.102,5.517,0.219,6.631,0.354s2,0.392,2.66,0.771 c0.75,0.449,1.279,1.066,1.588,1.853c0.311,0.785,0.465,1.911,0.465,3.379c0,1.928-0.26,3.361-0.777,4.301 c-0.392,0.689-0.934,1.204-1.626,1.543c-0.694,0.339-1.671,0.569-2.932,0.689c-1.349,0.119-3.859,0.18-7.538,0.18 c-3.075,0-5.35-0.08-6.816-0.24c-1.469-0.16-2.573-0.442-3.313-0.854c-0.77-0.439-1.301-1.021-1.596-1.738 s-0.442-1.813-0.442-3.282V44.496L360.221,44.496z"></path> <path fill="#FFFFFF" d="M387.42,30.814h22.658v4.81h-16.514v2.952h15.675v4.496h-15.675v3.282h16.634v4.915H387.42V30.814z"></path> <path fill="#FFFFFF" d="M412.146,51.27V30.814h15.061c3.537,0.01,5.654,0.047,6.354,0.11c0.699,0.065,1.374,0.299,2.023,0.697 c0.779,0.47,1.313,1.116,1.604,1.94c0.29,0.823,0.435,2.121,0.435,3.889c0,1.489-0.093,2.583-0.277,3.282 c-0.184,0.699-0.53,1.259-1.042,1.678c-0.549,0.45-1.378,0.759-2.485,0.929c1.309,0.102,2.248,0.477,2.815,1.124 c0.33,0.392,0.54,0.861,0.629,1.416c0.091,0.556,0.137,1.718,0.137,3.484v1.903h-6.146v-1.096c0-1.139-0.042-1.949-0.127-2.436 c-0.085-0.484-0.243-0.856-0.472-1.116c-0.23-0.24-0.547-0.392-0.952-0.457c-0.405-0.063-1.251-0.098-2.54-0.098h-8.782v5.2 h-6.232L412.146,51.27L412.146,51.27z M418.38,40.959h8.769c1.527-0.028,2.438-0.057,2.733-0.083 c0.295-0.023,0.547-0.102,0.757-0.23c0.271-0.17,0.459-0.422,0.569-0.757c0.11-0.337,0.165-0.844,0.165-1.521 c0-0.669-0.063-1.169-0.188-1.499s-0.342-0.57-0.65-0.72c-0.221-0.102-0.482-0.16-0.787-0.182 c-0.305-0.02-1.176-0.033-2.615-0.045h-8.752V40.959L418.38,40.959z"></path> <path fill="#FFFFFF" d="M437.921,30.814h6.849l7.465,15.313h1.169l7.388-15.313h6.803l-9.979,20.455h-9.576L437.921,30.814z"></path> <path fill="#FFFFFF" d="M468.626,30.814h6.549V51.27h-6.549V30.814z"></path> <path fill="#FFFFFF" d="M497.488,43.372h6.232c0.039,0.999,0.062,1.646,0.062,1.935c0,1.577-0.235,2.813-0.704,3.7 c-0.521,0.999-1.533,1.68-3.042,2.038c-1.509,0.359-4.116,0.539-7.823,0.539c-3.896,0-6.671-0.075-8.324-0.225 c-1.652-0.15-2.898-0.439-3.737-0.869c-0.75-0.39-1.311-0.914-1.681-1.573c-0.37-0.66-0.607-1.563-0.719-2.712 c-0.09-0.929-0.135-2.605-0.135-5.035c0-2.368,0.045-4.076,0.135-5.125s0.265-1.861,0.524-2.441 c0.568-1.298,1.724-2.142,3.462-2.525c1.736-0.385,5.245-0.577,10.52-0.577c2.64,0,4.558,0.062,5.755,0.182 c1.199,0.118,2.153,0.345,2.862,0.674c0.93,0.438,1.584,1.092,1.963,1.956c0.38,0.862,0.57,2.135,0.57,3.813 c0,0.09-0.006,0.431-0.018,1.021h-6.232c-0.03-0.681-0.072-1.136-0.127-1.364c-0.057-0.229-0.167-0.419-0.337-0.569 c-0.24-0.209-0.846-0.36-1.813-0.457c-0.969-0.095-2.438-0.142-4.406-0.142c-1.946,0-3.297,0.042-4.046,0.127 c-0.75,0.085-1.277,0.252-1.588,0.502c-0.37,0.299-0.627,0.804-0.771,1.513c-0.146,0.709-0.219,1.838-0.219,3.389 c0,1.549,0.065,2.64,0.195,3.272c0.13,0.635,0.379,1.092,0.75,1.371c0.352,0.271,0.906,0.45,1.671,0.54 c0.766,0.09,2.115,0.135,4.055,0.135c2.388,0,3.979-0.04,4.771-0.12c0.793-0.079,1.331-0.255,1.611-0.522 C497.273,45.465,497.468,44.651,497.488,43.372z"></path> <path fill="#FFFFFF" d="M505.94,30.814h6.549V51.27h-6.549V30.814z"></path> <path fill="#FFFFFF" d="M528.988,30.515c4.416,0,7.453,0.108,9.109,0.328c2.389,0.32,3.854,1.454,4.393,3.402 c0.369,1.339,0.555,3.604,0.555,6.788c0,3.197-0.186,5.465-0.555,6.804c-0.539,1.948-2.004,3.082-4.393,3.402 c-1.656,0.219-4.676,0.33-9.052,0.33c-4.456,0-7.513-0.11-9.171-0.33c-2.389-0.32-3.852-1.454-4.391-3.402 c-0.37-1.339-0.557-3.646-0.557-6.923c0-3.117,0.187-5.34,0.557-6.668c0.539-1.948,2.002-3.082,4.391-3.4 C521.525,30.625,524.563,30.515,528.988,30.515z M529.003,35.834c-3.307,0-5.295,0.085-5.964,0.255 c-0.771,0.2-1.273,0.647-1.514,1.343c-0.241,0.694-0.359,2.074-0.359,4.144c0,1.249,0.064,2.153,0.194,2.712 c0.249,1.039,1.004,1.634,2.263,1.783c0.93,0.12,2.732,0.18,5.41,0.18c2.508,0,4.176-0.045,5.005-0.135s1.444-0.29,1.843-0.6 c0.36-0.28,0.605-0.692,0.734-1.236c0.131-0.544,0.193-1.438,0.193-2.675c0-1.471-0.051-2.548-0.148-3.237 c-0.102-0.689-0.279-1.209-0.539-1.559c-0.33-0.439-0.874-0.712-1.633-0.817C533.729,35.887,531.9,35.834,529.003,35.834z"></path> <path fill="#FFFFFF" d="M544.783,44.496h6.039c-0.01,1.009,0.192,1.659,0.612,1.948c0.302,0.188,0.688,0.302,1.161,0.337 c0.477,0.035,1.973,0.063,4.488,0.083c2.637-0.01,4.221-0.027,4.75-0.052c0.529-0.025,0.949-0.104,1.26-0.232 c0.459-0.188,0.689-0.705,0.689-1.543c0-0.609-0.163-1.017-0.488-1.221c-0.324-0.205-0.984-0.317-1.982-0.337 c-0.771,0-2.398-0.062-4.888-0.182c-2.548-0.118-4.206-0.188-4.976-0.21c-1.498-0.05-2.65-0.19-3.454-0.427 c-0.804-0.234-1.431-0.617-1.88-1.146c-0.771-0.88-1.154-2.35-1.154-4.406c0-2.31,0.439-3.938,1.318-4.885 c0.67-0.739,1.697-1.211,3.087-1.417c1.389-0.205,4.211-0.309,8.467-0.309c3.007,0,5.12,0.085,6.339,0.255 c1.879,0.262,3.167,0.782,3.867,1.566c0.698,0.784,1.049,2.104,1.049,3.964c0,0.17-0.006,0.489-0.016,0.959h-6.039 c-0.021-0.569-0.067-0.959-0.145-1.169c-0.072-0.21-0.223-0.379-0.439-0.51c-0.271-0.16-0.744-0.263-1.424-0.309 c-0.682-0.045-2.118-0.065-4.316-0.065c-2.646,0-4.261,0.083-4.84,0.248c-0.58,0.165-0.869,0.622-0.869,1.371 c0,0.719,0.289,1.158,0.869,1.317c0.479,0.13,2.682,0.254,6.607,0.375c3.308,0.102,5.518,0.219,6.633,0.354 c1.111,0.135,2,0.392,2.658,0.771c0.748,0.449,1.277,1.066,1.59,1.853c0.309,0.784,0.465,1.911,0.465,3.379 c0,1.928-0.262,3.361-0.779,4.301c-0.391,0.689-0.932,1.204-1.627,1.543c-0.693,0.34-1.67,0.569-2.93,0.689 c-1.35,0.119-3.861,0.18-7.537,0.18c-3.077,0-5.352-0.08-6.818-0.24s-2.57-0.442-3.313-0.854 c-0.771-0.439-1.303-1.021-1.598-1.738s-0.439-1.813-0.439-3.282L544.783,44.496L544.783,44.496z"></path> <path fill="#FFFFFF" d="M572.281,45.83h6.549v5.44h-6.549V45.83z"></path> </g> <g display="inline"> <path d="M419.721,104.996h6.039c-0.01,1.01,0.195,1.658,0.615,1.948c0.299,0.188,0.688,0.302,1.161,0.337 c0.473,0.035,1.971,0.063,4.488,0.082c2.637-0.01,4.221-0.027,4.75-0.052c0.527-0.024,0.947-0.104,1.259-0.232 c0.459-0.188,0.688-0.704,0.688-1.544c0-0.609-0.163-1.016-0.485-1.221c-0.324-0.205-0.987-0.317-1.985-0.338 c-0.77,0-2.398-0.062-4.885-0.182c-2.548-0.119-4.206-0.188-4.978-0.209c-1.499-0.051-2.648-0.191-3.454-0.428 c-0.804-0.235-1.431-0.617-1.88-1.146c-0.77-0.88-1.152-2.349-1.152-4.404c0-2.31,0.438-3.938,1.317-4.886 c0.669-0.738,1.698-1.213,3.087-1.416c1.391-0.205,4.211-0.308,8.468-0.308c3.007,0,5.118,0.084,6.339,0.254 c1.878,0.262,3.167,0.782,3.865,1.566c0.699,0.784,1.051,2.104,1.051,3.964c0,0.17-0.005,0.489-0.017,0.959h-6.039 c-0.02-0.569-0.065-0.959-0.143-1.169c-0.075-0.21-0.222-0.379-0.442-0.51c-0.27-0.16-0.744-0.264-1.423-0.309 c-0.68-0.045-2.118-0.066-4.314-0.066c-2.647,0-4.263,0.083-4.842,0.248c-0.578,0.164-0.867,0.621-0.867,1.371 c0,0.719,0.29,1.157,0.867,1.316c0.479,0.131,2.684,0.255,6.608,0.375c3.307,0.102,5.517,0.217,6.631,0.354 c1.114,0.135,2,0.393,2.66,0.771c0.75,0.449,1.279,1.066,1.588,1.853c0.311,0.783,0.465,1.908,0.465,3.379 c0,1.929-0.26,3.36-0.777,4.301c-0.392,0.688-0.934,1.204-1.626,1.544c-0.694,0.34-1.673,0.569-2.932,0.688 c-1.349,0.119-3.859,0.181-7.538,0.181c-3.075,0-5.35-0.08-6.816-0.239c-1.471-0.16-2.573-0.445-3.313-0.854 c-0.77-0.439-1.301-1.021-1.596-1.738s-0.442-1.813-0.442-3.281L419.721,104.996L419.721,104.996z"></path> <path d="M446.92,91.314h22.658v4.811h-16.514v2.951h15.675v4.496h-15.675v3.282h16.634v4.915H446.92V91.314z"></path> <path d="M484.069,100.171h14.251c0.02,0.329,0.028,0.517,0.028,0.556c0,2.888-0.073,5.061-0.225,6.52 c-0.24,2.357-1.579,3.786-4.016,4.285c-1.051,0.211-2.25,0.353-3.604,0.428c-1.354,0.074-3.419,0.112-6.196,0.112 c-3.517,0-6.004-0.095-7.463-0.284c-1.459-0.188-2.611-0.57-3.462-1.14c-0.579-0.392-1.022-0.892-1.333-1.499 c-0.31-0.609-0.522-1.413-0.645-2.412c-0.12-0.93-0.182-2.77-0.182-5.517c0-1.866,0.052-3.274,0.15-4.226 c0.1-0.949,0.294-1.799,0.584-2.548c0.589-1.579,1.843-2.538,3.761-2.878c2.1-0.369,5.32-0.554,9.666-0.554 c2.578,0,4.616,0.063,6.114,0.192c1.499,0.131,2.731,0.348,3.702,0.646c1.566,0.488,2.518,1.549,2.847,3.178 c0.16,0.809,0.245,1.923,0.254,3.342h-6.232c-0.012-0.58-0.046-0.973-0.105-1.177c-0.06-0.205-0.185-0.377-0.375-0.517 c-0.35-0.25-1.079-0.405-2.188-0.467c-1.051-0.061-2.567-0.09-4.558-0.09c-2.158,0-3.699,0.05-4.623,0.149 c-0.924,0.101-1.556,0.284-1.896,0.555c-0.34,0.28-0.569,0.737-0.689,1.371s-0.18,1.721-0.18,3.259c0,1.729,0.06,2.938,0.18,3.619 c0.12,0.687,0.352,1.167,0.689,1.446c0.34,0.271,0.782,0.433,1.326,0.485c0.544,0.056,2.265,0.104,5.162,0.145 c2.838-0.021,4.562-0.048,5.171-0.082c0.607-0.035,1.099-0.128,1.469-0.277c0.3-0.131,0.512-0.343,0.637-0.638 c0.125-0.294,0.188-0.736,0.188-1.326c0-0.09-0.006-0.279-0.017-0.568h-8.195L484.069,100.171L484.069,100.171z"></path> <path d="M500.703,91.314h6.234v9.396c0.027,2.157,0.104,3.521,0.225,4.09c0.159,0.802,0.676,1.324,1.551,1.574 c0.874,0.25,2.641,0.375,5.297,0.375c2.158,0,3.654-0.063,4.488-0.188s1.426-0.373,1.775-0.742 c0.229-0.26,0.393-0.574,0.486-0.944c0.096-0.369,0.166-1.004,0.217-1.901c0.052-0.918,0.074-1.675,0.074-2.264v-9.396h6.234 v9.396c-0.07,3.268-0.175,5.404-0.314,6.413c-0.25,1.718-1.067,2.979-2.458,3.776c-0.789,0.459-1.901,0.77-3.342,0.93 c-1.438,0.159-3.802,0.239-7.088,0.239c-2.468,0-4.371-0.045-5.71-0.135c-1.338-0.093-2.502-0.25-3.491-0.479 c-2.188-0.52-3.467-1.838-3.837-3.957c-0.139-0.809-0.227-1.543-0.262-2.202s-0.063-2.188-0.082-4.585L500.703,91.314 L500.703,91.314z"></path> <path d="M530.06,111.77V91.314h15.063c3.536,0.01,5.654,0.047,6.354,0.11c0.699,0.065,1.373,0.3,2.022,0.696 c0.779,0.471,1.313,1.117,1.604,1.941c0.291,0.823,0.437,2.12,0.437,3.889c0,1.488-0.093,2.582-0.277,3.281 c-0.186,0.699-0.53,1.26-1.041,1.679c-0.55,0.45-1.379,0.759-2.486,0.929c1.309,0.103,2.247,0.477,2.815,1.125 c0.33,0.391,0.54,0.861,0.63,1.416c0.09,0.556,0.136,1.717,0.136,3.483v1.903h-6.146v-1.096c0-1.139-0.043-1.949-0.127-2.436 c-0.085-0.484-0.242-0.856-0.473-1.116c-0.229-0.239-0.549-0.392-0.951-0.457c-0.404-0.063-1.252-0.098-2.54-0.098h-8.782v5.2 h-6.234v0.005H530.06z M536.293,101.459h8.768c1.528-0.027,2.439-0.057,2.734-0.082c0.295-0.023,0.547-0.102,0.757-0.23 c0.271-0.17,0.46-0.422,0.569-0.756c0.109-0.338,0.165-0.844,0.165-1.521c0-0.67-0.063-1.169-0.188-1.498 c-0.125-0.33-0.343-0.57-0.649-0.721c-0.223-0.102-0.482-0.159-0.787-0.182c-0.305-0.02-1.176-0.032-2.615-0.045h-8.752 L536.293,101.459L536.293,101.459z"></path> <path d="M557.678,91.314h6.549v20.455h-6.549V91.314z"></path> <path d="M567.089,111.77V91.314h14.761c2.617,0,4.331,0.02,5.143,0.06c0.809,0.04,1.65,0.149,2.532,0.33 c2.048,0.419,3.382,1.579,4,3.479c0.229,0.72,0.386,1.489,0.466,2.313s0.119,2.07,0.119,3.738c0,1.828-0.049,3.213-0.145,4.149 c-0.094,0.938-0.271,1.796-0.531,2.563c-0.607,1.798-1.861,2.907-3.762,3.327c-0.889,0.199-1.838,0.332-2.848,0.396 c-1.008,0.065-2.662,0.1-4.959,0.1L567.089,111.77L567.089,111.77z M573.232,106.555h8.678c1.598,0,2.772-0.055,3.529-0.157 c0.754-0.104,1.283-0.287,1.596-0.548c0.339-0.289,0.579-0.748,0.719-1.378c0.141-0.632,0.21-1.579,0.21-2.849 s-0.06-2.224-0.18-2.861c-0.12-0.641-0.33-1.131-0.63-1.471c-0.34-0.369-0.832-0.604-1.478-0.711 c-0.645-0.104-1.921-0.158-3.829-0.158h-8.615V106.555z"></path> <path d="M618.25,111.77l-1.754-3.461h-13.531l-1.754,3.461h-7.117l10.851-20.455h9.681l10.699,20.455H618.25z M614.309,103.827 l-3.939-7.747h-1.244l-3.941,7.747H614.309z"></path> <path d="M626.252,111.77V91.314h14.76c2.618,0,4.332,0.02,5.143,0.06c0.809,0.04,1.651,0.149,2.531,0.33 c2.049,0.419,3.383,1.579,4,3.479c0.23,0.72,0.387,1.489,0.467,2.313s0.12,2.07,0.12,3.738c0,1.828-0.05,3.213-0.145,4.149 c-0.095,0.938-0.271,1.796-0.532,2.563c-0.607,1.798-1.861,2.907-3.761,3.327c-0.89,0.199-1.839,0.332-2.848,0.396 c-1.009,0.065-2.662,0.1-4.96,0.1L626.252,111.77L626.252,111.77z M632.396,106.555h8.677c1.598,0,2.773-0.055,3.527-0.157 c0.755-0.104,1.286-0.287,1.598-0.548c0.34-0.289,0.58-0.748,0.719-1.378c0.141-0.632,0.211-1.579,0.211-2.849 s-0.061-2.224-0.18-2.861c-0.121-0.641-0.33-1.131-0.63-1.471c-0.342-0.369-0.832-0.604-1.478-0.711 c-0.645-0.104-1.922-0.158-3.83-0.158h-8.616L632.396,106.555L632.396,106.555z"></path> <path d="M661.348,91.314h8.197l6.669,8.195l6.384-8.195h8.122l-11.192,13.217v7.238h-6.443v-7.238L661.348,91.314z"></path> <path d="M699.217,111.77V91.314h14.012c2.777,0,4.564,0.055,5.364,0.164c2.028,0.271,3.399,0.922,4.113,1.956 c0.714,1.032,1.071,2.88,1.071,5.537c0,2.526-0.295,4.302-0.886,5.318c-0.397,0.688-0.959,1.214-1.679,1.573 c-0.719,0.359-1.703,0.609-2.951,0.75c-0.891,0.1-2.549,0.147-4.976,0.147h-7.838v5.007h-6.232L699.217,111.77L699.217,111.77z M705.45,101.654h7.792c1.42-0.01,2.286-0.029,2.601-0.063c0.315-0.027,0.599-0.107,0.849-0.237 c0.318-0.169,0.538-0.429,0.658-0.771c0.119-0.345,0.182-0.882,0.182-1.609c0-0.729-0.076-1.266-0.227-1.604 c-0.148-0.34-0.416-0.585-0.795-0.734c-0.277-0.108-1.369-0.181-3.268-0.211h-7.792V101.654L705.45,101.654z"></path> <path d="M725.83,111.77V91.314h15.061c3.537,0.01,5.654,0.047,6.354,0.11c0.699,0.065,1.374,0.3,2.021,0.696 c0.779,0.471,1.314,1.117,1.604,1.941c0.29,0.823,0.436,2.12,0.436,3.889c0,1.488-0.094,2.582-0.275,3.281 c-0.188,0.699-0.532,1.26-1.042,1.679c-0.552,0.45-1.378,0.759-2.487,0.929c1.309,0.103,2.248,0.477,2.816,1.125 c0.328,0.391,0.54,0.861,0.63,1.416c0.09,0.556,0.136,1.717,0.136,3.483v1.903h-6.146v-1.096c0-1.139-0.043-1.949-0.127-2.436 c-0.086-0.484-0.241-0.856-0.473-1.116c-0.229-0.239-0.547-0.392-0.951-0.457c-0.405-0.063-1.252-0.098-2.541-0.098h-8.781v5.2 h-6.233V111.77L725.83,111.77z M732.064,101.459h8.767c1.528-0.027,2.44-0.057,2.735-0.082c0.295-0.023,0.547-0.102,0.756-0.23 c0.271-0.17,0.46-0.422,0.568-0.756c0.109-0.338,0.164-0.844,0.164-1.521c0-0.67-0.063-1.169-0.188-1.498 c-0.125-0.33-0.342-0.57-0.651-0.721c-0.22-0.102-0.479-0.159-0.786-0.182c-0.305-0.02-1.177-0.032-2.613-0.045h-8.752V101.459 L732.064,101.459z"></path> <path d="M767.176,91.015c4.416,0,7.453,0.108,9.111,0.327c2.388,0.32,3.852,1.454,4.391,3.402 c0.369,1.339,0.557,3.604,0.557,6.788c0,3.197-0.188,5.465-0.557,6.804c-0.539,1.948-2.003,3.082-4.391,3.402 c-1.658,0.219-4.676,0.329-9.051,0.329c-4.456,0-7.516-0.11-9.172-0.329c-2.39-0.32-3.854-1.454-4.393-3.402 c-0.369-1.339-0.555-3.646-0.555-6.924c0-3.117,0.186-5.34,0.555-6.668c0.539-1.948,2.003-3.082,4.393-3.402 C759.713,91.125,762.75,91.015,767.176,91.015z M767.191,96.334c-3.309,0-5.295,0.086-5.967,0.256 c-0.77,0.199-1.271,0.646-1.514,1.342c-0.239,0.693-0.359,2.074-0.359,4.145c0,1.248,0.064,2.152,0.195,2.712 c0.249,1.039,1.004,1.634,2.262,1.783c0.932,0.12,2.732,0.181,5.41,0.181c2.508,0,4.178-0.045,5.006-0.135 c0.828-0.091,1.443-0.291,1.845-0.6c0.358-0.28,0.604-0.692,0.732-1.236c0.13-0.545,0.194-1.438,0.194-2.676 c0-1.471-0.05-2.547-0.149-3.236c-0.101-0.688-0.278-1.209-0.54-1.559c-0.329-0.439-0.873-0.712-1.633-0.816 C771.916,96.387,770.088,96.334,767.191,96.334z"></path> <path d="M782.596,91.314h24.756v5.215h-9.096v15.24h-6.549v-15.24h-9.111V91.314L782.596,91.314z"></path> <path d="M808.791,91.314h22.658v4.811h-16.517v2.951h15.677v4.496h-15.677v3.282h16.636v4.915h-22.777V91.314L808.791,91.314z"></path> <path d="M852.968,103.872h6.234c0.04,0.999,0.06,1.646,0.06,1.935c0,1.577-0.232,2.813-0.704,3.7 c-0.52,0.999-1.532,1.681-3.042,2.038c-1.509,0.359-4.114,0.539-7.82,0.539c-3.896,0-6.672-0.074-8.324-0.225 c-1.654-0.15-2.9-0.439-3.739-0.869c-0.749-0.39-1.31-0.914-1.679-1.573s-0.609-1.563-0.719-2.712 c-0.092-0.93-0.137-2.605-0.137-5.035c0-2.368,0.045-4.076,0.137-5.125c0.09-1.05,0.264-1.861,0.521-2.441 c0.57-1.301,1.727-2.143,3.463-2.525c1.738-0.384,5.244-0.577,10.521-0.577c2.637,0,4.555,0.062,5.754,0.182 c1.199,0.117,2.151,0.344,2.861,0.674c0.93,0.438,1.584,1.092,1.965,1.956c0.379,0.862,0.566,2.136,0.566,3.813 c0,0.09-0.004,0.431-0.015,1.021h-6.232c-0.029-0.682-0.071-1.137-0.129-1.364c-0.055-0.229-0.167-0.419-0.337-0.569 c-0.239-0.209-0.844-0.359-1.813-0.457c-0.971-0.095-2.438-0.143-4.405-0.143c-1.948,0-3.297,0.043-4.047,0.127 c-0.749,0.086-1.278,0.253-1.588,0.503c-0.369,0.3-0.627,0.804-0.771,1.513c-0.146,0.71-0.218,1.839-0.218,3.389 c0,1.549,0.065,2.641,0.194,3.273c0.131,0.635,0.38,1.092,0.75,1.371c0.35,0.271,0.904,0.449,1.671,0.539 c0.765,0.09,2.114,0.135,4.054,0.135c2.387,0,3.979-0.039,4.771-0.119c0.792-0.079,1.331-0.256,1.609-0.523 C852.753,105.965,852.947,105.15,852.968,103.872z"></path> <path d="M880.871,103.872h6.231c0.041,0.999,0.063,1.646,0.063,1.935c0,1.577-0.234,2.813-0.705,3.7 c-0.521,0.999-1.533,1.681-3.042,2.038c-1.508,0.359-4.115,0.539-7.822,0.539c-3.896,0-6.671-0.074-8.324-0.225 c-1.652-0.151-2.898-0.439-3.736-0.869c-0.75-0.39-1.312-0.914-1.682-1.573c-0.367-0.659-0.607-1.563-0.719-2.712 c-0.09-0.93-0.135-2.605-0.135-5.035c0-2.368,0.045-4.076,0.135-5.125c0.09-1.05,0.267-1.861,0.524-2.441 c0.567-1.301,1.724-2.143,3.462-2.525S870.365,91,875.641,91c2.64,0,4.558,0.062,5.756,0.182c1.197,0.117,2.151,0.344,2.861,0.674 c0.93,0.438,1.583,1.092,1.962,1.956c0.381,0.862,0.57,2.136,0.57,3.813c0,0.09-0.006,0.431-0.016,1.021h-6.233 c-0.029-0.682-0.072-1.137-0.127-1.364c-0.055-0.229-0.168-0.419-0.338-0.569c-0.239-0.209-0.844-0.359-1.813-0.457 c-0.97-0.095-2.438-0.143-4.404-0.143c-1.947,0-3.299,0.043-4.048,0.127c-0.749,0.086-1.276,0.253-1.589,0.503 c-0.369,0.3-0.627,0.804-0.771,1.513c-0.146,0.71-0.217,1.839-0.217,3.389c0,1.549,0.063,2.641,0.192,3.273 s0.38,1.092,0.749,1.371c0.352,0.271,0.906,0.449,1.672,0.539s2.115,0.135,4.055,0.135c2.388,0,3.979-0.039,4.771-0.119 c0.793-0.079,1.33-0.256,1.61-0.523C880.656,105.965,880.851,105.15,880.871,103.872z"></path> <path d="M889.322,91.314h6.549v20.455h-6.549V91.314z"></path> <path d="M912.37,91.015c4.416,0,7.453,0.108,9.111,0.327c2.388,0.32,3.852,1.454,4.391,3.402c0.37,1.339,0.555,3.604,0.555,6.788 c0,3.197-0.185,5.465-0.555,6.804c-0.539,1.948-2.003,3.082-4.391,3.402c-1.658,0.219-4.678,0.329-9.053,0.329 c-4.456,0-7.514-0.11-9.172-0.329c-2.388-0.32-3.851-1.454-4.391-3.402c-0.369-1.339-0.556-3.646-0.556-6.924 c0-3.117,0.187-5.34,0.556-6.668c0.54-1.948,2.003-3.082,4.391-3.402C904.907,91.125,907.944,91.015,912.37,91.015z M912.386,96.334c-3.308,0-5.296,0.086-5.965,0.256c-0.77,0.199-1.271,0.646-1.514,1.342c-0.239,0.693-0.359,2.074-0.359,4.145 c0,1.248,0.064,2.152,0.195,2.712c0.249,1.039,1.004,1.634,2.263,1.783c0.929,0.12,2.732,0.181,5.409,0.181 c2.508,0,4.176-0.045,5.006-0.135c0.829-0.091,1.443-0.291,1.843-0.6c0.359-0.28,0.604-0.692,0.734-1.236 c0.13-0.545,0.194-1.438,0.194-2.676c0-1.471-0.052-2.547-0.149-3.236c-0.098-0.688-0.28-1.209-0.539-1.559 c-0.33-0.439-0.875-0.712-1.634-0.816C917.11,96.387,915.282,96.334,912.386,96.334z M917.046,82.068l2.383,4.795l-8.722,3.043 l-1.273-2.413L917.046,82.068z"></path> <path d="M928.885,91.314h10.925l10.717,15.255h0.644l-0.148-15.255h6.34v20.455h-10.835l-10.761-15.256h-0.675l0.135,15.256 h-6.339L928.885,91.314L928.885,91.314z"></path> <path d="M960.354,106.33h6.551v5.439h-6.551V106.33z"></path> </g> </g> <path opacity="0.8" d="M612.936,10.982H84.943c-16.57,0-30.004,13.434-30.004,30.005l0,0 c0,16.57,13.434,30.004,30.004,30.004h527.992L612.936,10.982L612.936,10.982z"></path> <path opacity="0.6" fill="#FFFFFF" d="M263.939,131H911.93c16.571,0,30.006-13.434,30.006-30.005l0,0 c0-16.57-13.435-30.004-30.006-30.004H263.939V131z"></path> <g> <g> <path fill="#FFFFFF" d="M106.232,33.901c-1.029-0.929-2.059-1.616-3.087-2.063c-1.029-0.442-2.098-0.667-3.207-0.667 c-1.209,0-2.343,0.222-3.402,0.66c-1.059,0.439-1.983,1.079-2.772,1.918c-0.909,0.959-1.601,2.055-2.075,3.282 c-0.475,1.229-0.712,2.528-0.712,3.896c0,2.628,0.724,4.704,2.173,6.233c1.448,1.528,3.421,2.292,5.919,2.292 c0.969,0,1.935-0.165,2.899-0.494c0.964-0.33,1.986-0.849,3.064-1.559l-0.584,3.072c-0.879,0.46-1.801,0.804-2.765,1.032 c-0.964,0.229-1.976,0.347-3.035,0.347c-3.087,0-5.595-0.997-7.522-2.99c-1.928-1.993-2.893-4.578-2.893-7.755 c0-1.758,0.313-3.414,0.937-4.968c0.624-1.555,1.521-2.915,2.689-4.083c1.049-1.051,2.258-1.85,3.627-2.398 c1.368-0.549,2.842-0.824,4.42-0.824c1.358,0,2.615,0.197,3.769,0.592c1.154,0.396,2.24,1.008,3.259,1.836L106.232,33.901z"></path> <path fill="#FFFFFF" d="M107.604,44.976c0-2.248,0.739-4.128,2.218-5.644c1.479-1.514,3.317-2.27,5.515-2.27 c1.988,0,3.631,0.627,4.93,1.88c1.298,1.254,1.948,2.813,1.948,4.683c0,2.438-0.717,4.418-2.15,5.942 c-1.433,1.522-3.284,2.285-5.552,2.285c-2.088,0-3.762-0.629-5.021-1.89C108.233,48.707,107.604,47.043,107.604,44.976z M115.216,38.997c-1.509,0-2.755,0.559-3.739,1.671c-0.984,1.114-1.476,2.53-1.476,4.248c0,1.509,0.427,2.727,1.281,3.649 s1.98,1.386,3.379,1.386c1.499,0,2.737-0.554,3.717-1.663c0.979-1.107,1.468-2.518,1.468-4.226c0-1.479-0.432-2.692-1.296-3.644 C117.687,39.471,116.575,38.997,115.216,38.997z"></path> <path fill="#FFFFFF" d="M124.575,51.27l1.798-13.712h2.278l-0.314,2.231c0.769-0.929,1.573-1.616,2.413-2.061 c0.839-0.444,1.758-0.667,2.757-0.667c1.309,0,2.345,0.357,3.109,1.079c0.764,0.72,1.146,1.697,1.146,2.938 c0,0.22-0.01,0.459-0.03,0.719c-0.021,0.262-0.05,0.529-0.09,0.811l-1.139,8.662h-2.397l1.079-8.407 c0.01-0.07,0.02-0.165,0.03-0.285c0.06-0.49,0.09-0.813,0.09-0.974c0-0.819-0.25-1.444-0.75-1.874 c-0.5-0.431-1.229-0.646-2.188-0.646c-1.259,0-2.273,0.447-3.042,1.341c-0.769,0.896-1.269,2.195-1.499,3.903l-0.929,6.938h-2.322 V51.27L124.575,51.27z"></path> <path fill="#FFFFFF" d="M140.527,44.976c0-2.248,0.739-4.128,2.218-5.644c1.479-1.514,3.317-2.27,5.515-2.27 c1.988,0,3.631,0.627,4.93,1.88c1.298,1.254,1.948,2.813,1.948,4.683c0,2.438-0.717,4.418-2.15,5.942 c-1.433,1.522-3.284,2.285-5.552,2.285c-2.088,0-3.762-0.629-5.021-1.89C141.156,48.707,140.527,47.043,140.527,44.976z M148.14,38.997c-1.509,0-2.755,0.559-3.739,1.671c-0.984,1.114-1.476,2.53-1.476,4.248c0,1.509,0.427,2.727,1.281,3.649 s1.98,1.386,3.379,1.386c1.499,0,2.737-0.554,3.717-1.663c0.979-1.107,1.468-2.518,1.468-4.226c0-1.479-0.432-2.692-1.296-3.644 C150.61,39.471,149.499,38.997,148.14,38.997z"></path> <path fill="#FFFFFF" d="M169.577,41.109c-0.709-0.719-1.436-1.246-2.18-1.581c-0.745-0.334-1.551-0.502-2.42-0.502 c-1.599,0-2.902,0.56-3.911,1.678c-1.009,1.119-1.514,2.573-1.514,4.361c0,1.438,0.437,2.598,1.312,3.477 c0.874,0.879,2.03,1.319,3.469,1.319c0.699,0,1.384-0.14,2.053-0.419c0.669-0.28,1.409-0.744,2.218-1.396l-0.375,2.577 c-0.54,0.4-1.182,0.705-1.926,0.914c-0.744,0.21-1.551,0.315-2.42,0.315c-2.018,0-3.649-0.627-4.893-1.881 c-1.244-1.254-1.866-2.899-1.866-4.938c0-2.338,0.742-4.251,2.226-5.74c1.483-1.486,3.409-2.23,5.777-2.23 c0.859,0,1.681,0.113,2.465,0.344c0.784,0.23,1.561,0.584,2.33,1.064L169.577,41.109z"></path> <path fill="#FFFFFF" d="M184.406,44.811l-10.984,0.015v0.24c0,1.469,0.375,2.625,1.124,3.469s1.773,1.266,3.072,1.266 c0.809,0,1.553-0.193,2.233-0.584c0.679-0.39,1.338-0.992,1.978-1.813l1.648,1.349c-0.799,1.039-1.678,1.816-2.638,2.33 c-0.959,0.517-2.003,0.772-3.132,0.772c-2.048,0-3.674-0.617-4.878-1.853c-1.204-1.232-1.806-2.898-1.806-4.998 c0-2.288,0.699-4.183,2.098-5.687c1.398-1.503,3.152-2.255,5.26-2.255c1.918,0,3.407,0.584,4.466,1.753s1.588,2.813,1.588,4.93 c0,0.29-0.002,0.51-0.007,0.66C184.423,44.556,184.416,44.691,184.406,44.811z M182.128,42.863 c-0.02-1.239-0.357-2.193-1.012-2.862c-0.655-0.669-1.576-1.004-2.765-1.004c-1.179,0-2.195,0.352-3.05,1.049 c-0.854,0.699-1.411,1.641-1.671,2.817H182.128z"></path> <path fill="#FFFFFF" d="M195.173,51.27l1.109-8.422c0.03-0.21,0.053-0.419,0.067-0.631c0.015-0.21,0.022-0.413,0.022-0.612 c0-0.829-0.212-1.456-0.637-1.881c-0.425-0.426-1.052-0.639-1.881-0.639c-1.079,0-1.94,0.438-2.585,1.313 c-0.645,0.875-1.082,2.186-1.311,3.934l-0.929,6.938h-2.353l1.828-13.712h2.278l-0.315,2.111c0.649-0.879,1.359-1.532,2.128-1.963 c0.77-0.429,1.608-0.644,2.518-0.644c0.919,0,1.698,0.227,2.338,0.682c0.639,0.455,1.064,1.086,1.274,1.896 c0.689-0.859,1.441-1.503,2.255-1.935c0.814-0.429,1.681-0.644,2.6-0.644c1.169,0,2.096,0.357,2.78,1.079 c0.685,0.719,1.027,1.697,1.027,2.938c0,0.29-0.035,0.749-0.105,1.378c-0.01,0.07-0.015,0.12-0.015,0.15l-1.139,8.662h-2.398 l1.109-8.407c0.03-0.21,0.053-0.42,0.067-0.629c0.015-0.21,0.022-0.42,0.022-0.629c0-0.829-0.212-1.456-0.637-1.881 c-0.425-0.426-1.052-0.639-1.881-0.639c-1.109,0-1.976,0.419-2.6,1.261c-0.625,0.839-1.057,2.168-1.296,3.984l-0.914,6.938 L195.173,51.27L195.173,51.27L195.173,51.27z"></path> <path fill="#FFFFFF" d="M210.121,44.976c0-2.248,0.739-4.128,2.218-5.644c1.479-1.514,3.317-2.27,5.515-2.27 c1.988,0,3.631,0.627,4.93,1.88c1.298,1.254,1.948,2.813,1.948,4.683c0,2.438-0.717,4.418-2.15,5.942 c-1.433,1.522-3.284,2.285-5.552,2.285c-2.088,0-3.762-0.629-5.021-1.89C210.75,48.707,210.121,47.043,210.121,44.976z M217.734,38.997c-1.509,0-2.755,0.559-3.739,1.671c-0.984,1.114-1.476,2.53-1.476,4.248c0,1.509,0.427,2.727,1.281,3.649 s1.98,1.386,3.379,1.386c1.499,0,2.737-0.554,3.717-1.663c0.979-1.107,1.468-2.518,1.468-4.226c0-1.479-0.432-2.692-1.296-3.644 C220.204,39.471,219.092,38.997,217.734,38.997z"></path> <path fill="#FFFFFF" d="M226.044,49.276l1.529-1.813c0.5,0.811,1.066,1.416,1.701,1.821c0.634,0.404,1.336,0.606,2.105,0.606 c0.859,0,1.541-0.197,2.045-0.594c0.504-0.395,0.757-0.926,0.757-1.596c0-0.75-0.709-1.449-2.128-2.098 c-0.359-0.17-0.645-0.312-0.854-0.419c-1.309-0.629-2.178-1.215-2.607-1.753c-0.43-0.54-0.645-1.221-0.645-2.038 c0-1.261,0.464-2.295,1.394-3.109c0.93-0.813,2.123-1.221,3.582-1.221c0.919,0,1.769,0.17,2.547,0.509 c0.779,0.34,1.484,0.844,2.113,1.514l-1.438,1.725c-0.42-0.561-0.915-0.981-1.484-1.268c-0.569-0.285-1.204-0.427-1.903-0.427 c-0.689,0-1.274,0.197-1.753,0.592c-0.479,0.396-0.719,0.862-0.719,1.401c0,0.739,0.849,1.474,2.547,2.203l0.24,0.104 c1.349,0.58,2.253,1.154,2.712,1.726c0.459,0.567,0.689,1.313,0.689,2.231c0,1.391-0.45,2.482-1.349,3.282 c-0.899,0.799-2.128,1.199-3.687,1.199c-1.159,0-2.178-0.21-3.057-0.629C227.502,50.805,226.723,50.156,226.044,49.276z"></path> <path fill="#FFFFFF" d="M260.152,37.558h2.353l-1.798,13.712h-2.397l0.33-2.055c-0.66,0.892-1.396,1.548-2.21,1.973 s-1.741,0.637-2.78,0.637c-1.758,0-3.187-0.64-4.286-1.918c-1.099-1.279-1.648-2.942-1.648-4.99c0-2.268,0.669-4.144,2.008-5.627 c1.339-1.481,3.022-2.225,5.05-2.225c1.219,0,2.243,0.27,3.072,0.809c0.829,0.539,1.474,1.354,1.933,2.442L260.152,37.558z M254.472,49.635c1.338,0,2.47-0.555,3.394-1.662c0.924-1.109,1.386-2.487,1.386-4.138c0-1.389-0.362-2.513-1.086-3.372 c-0.725-0.857-1.671-1.289-2.84-1.289c-1.519,0-2.762,0.54-3.731,1.618c-0.969,1.079-1.454,2.453-1.454,4.121 c0,1.409,0.402,2.548,1.207,3.417C252.153,49.2,253.193,49.635,254.472,49.635z"></path> <path fill="#FFFFFF" d="M273.534,51.27l1.798-13.712h2.278l-0.314,2.231c0.769-0.929,1.573-1.616,2.413-2.061 c0.839-0.444,1.758-0.667,2.757-0.667c1.309,0,2.345,0.357,3.109,1.079c0.764,0.72,1.146,1.697,1.146,2.938 c0,0.22-0.01,0.459-0.03,0.719c-0.021,0.262-0.05,0.529-0.09,0.811l-1.139,8.662h-2.397l1.079-8.407 c0.01-0.07,0.02-0.165,0.03-0.285c0.06-0.49,0.09-0.813,0.09-0.974c0-0.819-0.25-1.444-0.75-1.874 c-0.5-0.431-1.229-0.646-2.188-0.646c-1.259,0-2.273,0.447-3.042,1.341c-0.769,0.896-1.269,2.195-1.499,3.903l-0.929,6.938h-2.322 V51.27L273.534,51.27z"></path> <path fill="#FFFFFF" d="M291.54,37.558h2.397l-0.794,6.067c-0.02,0.16-0.05,0.392-0.09,0.689c-0.21,1.526-0.315,2.538-0.315,3.025 c0,0.74,0.255,1.314,0.764,1.726c0.51,0.41,1.229,0.614,2.158,0.614c1.229,0,2.123-0.33,2.682-0.989 c0.56-0.659,0.984-2.104,1.274-4.331l0.884-6.804h2.368l-0.929,6.968c-0.01,0.108-0.03,0.27-0.06,0.479 c-0.33,2.508-0.929,4.228-1.798,5.155c-0.52,0.549-1.167,0.969-1.94,1.259c-0.774,0.29-1.646,0.437-2.615,0.437 c-1.569,0-2.825-0.389-3.769-1.162c-0.944-0.774-1.416-1.8-1.416-3.079c0-0.49,0.115-1.648,0.345-3.479l0.03-0.209L291.54,37.558z "></path> <path fill="#FFFFFF" d="M318.282,44.811l-10.984,0.015v0.24c0,1.469,0.375,2.625,1.124,3.469s1.773,1.266,3.072,1.266 c0.809,0,1.553-0.193,2.231-0.584c0.68-0.39,1.34-0.992,1.979-1.813l1.646,1.349c-0.799,1.039-1.678,1.816-2.638,2.33 c-0.959,0.517-2.003,0.772-3.132,0.772c-2.048,0-3.674-0.617-4.878-1.853c-1.204-1.232-1.806-2.898-1.806-4.998 c0-2.288,0.699-4.183,2.098-5.687c1.396-1.503,3.152-2.255,5.26-2.255c1.918,0,3.407,0.584,4.466,1.753 c1.061,1.169,1.588,2.813,1.588,4.93c0,0.29-0.002,0.51-0.007,0.66C318.299,44.556,318.292,44.691,318.282,44.811z M316.004,42.863c-0.02-1.239-0.355-2.193-1.012-2.862s-1.576-1.004-2.767-1.004c-1.179,0-2.193,0.352-3.05,1.049 c-0.854,0.699-1.411,1.641-1.671,2.817H316.004z"></path> <path fill="#FFFFFF" d="M319.503,49.276l1.529-1.813c0.5,0.811,1.064,1.416,1.701,1.821c0.634,0.404,1.336,0.606,2.104,0.606 c0.859,0,1.541-0.197,2.045-0.594c0.504-0.395,0.757-0.926,0.757-1.596c0-0.75-0.709-1.449-2.128-2.098 c-0.357-0.17-0.645-0.312-0.854-0.419c-1.311-0.629-2.179-1.215-2.607-1.753c-0.43-0.54-0.645-1.221-0.645-2.038 c0-1.261,0.464-2.295,1.394-3.109c0.932-0.813,2.123-1.221,3.582-1.221c0.919,0,1.771,0.17,2.547,0.509 c0.779,0.34,1.484,0.844,2.113,1.514l-1.438,1.725c-0.422-0.561-0.915-0.981-1.484-1.268s-1.204-0.427-1.903-0.427 c-0.688,0-1.272,0.197-1.753,0.592c-0.479,0.396-0.719,0.862-0.719,1.401c0,0.739,0.849,1.474,2.547,2.203l0.24,0.104 c1.349,0.58,2.253,1.154,2.712,1.726c0.459,0.567,0.688,1.313,0.688,2.231c0,1.391-0.448,2.482-1.349,3.282 c-0.899,0.799-2.128,1.199-3.688,1.199c-1.158,0-2.179-0.21-3.058-0.629C320.961,50.805,320.182,50.156,319.503,49.276z"></path> <path fill="#FFFFFF" d="M333.403,51.27l1.543-11.721h-2.547l0.27-1.991h2.547l0.705-5.529h2.428l-0.732,5.529h3.012l-0.255,1.991 h-3.027L335.8,51.27H333.403z"></path> <path fill="#FFFFFF" d="M349.924,39.791c-0.26-0.129-0.522-0.229-0.794-0.3c-0.27-0.07-0.54-0.104-0.81-0.104 c-1.049,0-1.88,0.438-2.495,1.316c-0.614,0.879-1.046,2.243-1.296,4.091l-0.869,6.476h-2.323l1.798-13.712h2.368l-0.375,2.173 c0.629-0.931,1.269-1.605,1.911-2.03c0.645-0.425,1.351-0.637,2.121-0.637c0.22,0,0.447,0.023,0.682,0.075 c0.235,0.05,0.467,0.125,0.697,0.225L349.924,39.791z"></path> <path fill="#FFFFFF" d="M351.026,44.976c0-2.248,0.737-4.128,2.218-5.644c1.479-1.514,3.315-2.27,5.515-2.27 c1.988,0,3.631,0.627,4.932,1.88c1.298,1.254,1.946,2.813,1.946,4.683c0,2.438-0.717,4.418-2.148,5.942 c-1.435,1.522-3.284,2.285-5.554,2.285c-2.088,0-3.762-0.629-5.021-1.89C351.655,48.707,351.026,47.043,351.026,44.976z M358.639,38.997c-1.509,0-2.755,0.559-3.737,1.671c-0.984,1.114-1.478,2.53-1.478,4.248c0,1.509,0.427,2.727,1.281,3.649 c0.854,0.924,1.979,1.386,3.379,1.386c1.499,0,2.737-0.554,3.717-1.663c0.979-1.107,1.468-2.518,1.468-4.226 c0-1.479-0.432-2.692-1.296-3.644C361.109,39.471,359.997,38.997,358.639,38.997z"></path> <path fill="#FFFFFF" d="M366.949,49.276l1.527-1.813c0.5,0.811,1.066,1.416,1.701,1.821c0.635,0.404,1.336,0.606,2.105,0.606 c0.857,0,1.541-0.197,2.045-0.594c0.504-0.395,0.757-0.926,0.757-1.596c0-0.75-0.709-1.449-2.128-2.098 c-0.359-0.17-0.645-0.312-0.854-0.419c-1.31-0.629-2.179-1.215-2.606-1.753c-0.43-0.54-0.646-1.221-0.646-2.038 c0-1.261,0.466-2.295,1.396-3.109c0.93-0.813,2.123-1.221,3.582-1.221c0.919,0,1.769,0.17,2.547,0.509 c0.779,0.34,1.484,0.844,2.113,1.514l-1.438,1.725c-0.42-0.561-0.915-0.981-1.482-1.268c-0.569-0.285-1.204-0.427-1.903-0.427 c-0.689,0-1.274,0.197-1.753,0.592c-0.479,0.396-0.719,0.862-0.719,1.401c0,0.739,0.849,1.474,2.547,2.203l0.24,0.104 c1.349,0.58,2.253,1.154,2.712,1.726c0.459,0.567,0.688,1.313,0.688,2.231c0,1.391-0.45,2.482-1.349,3.282 c-0.899,0.799-2.128,1.199-3.688,1.199c-1.159,0-2.178-0.21-3.057-0.629C368.407,50.805,367.628,50.156,366.949,49.276z"></path> </g> <g> <path d="M286.965,111.77l2.877-21.939h2.742l-2.892,21.939H286.965z"></path> <path d="M294.496,111.77l1.798-13.712h2.278l-0.314,2.231c0.769-0.93,1.573-1.616,2.413-2.061 c0.839-0.445,1.758-0.667,2.757-0.667c1.309,0,2.345,0.357,3.109,1.079c0.764,0.719,1.146,1.696,1.146,2.938 c0,0.219-0.01,0.459-0.028,0.719c-0.021,0.262-0.05,0.529-0.09,0.811l-1.141,8.662h-2.397l1.079-8.406 c0.01-0.07,0.02-0.166,0.03-0.285c0.06-0.49,0.09-0.813,0.09-0.975c0-0.818-0.25-1.443-0.75-1.873 c-0.5-0.432-1.229-0.646-2.188-0.646c-1.259,0-2.273,0.447-3.042,1.343s-1.269,2.194-1.499,3.902l-0.929,6.938L294.496,111.77 L294.496,111.77z"></path> <path d="M324.234,88.542h2.383l-3.072,23.229h-2.383l0.33-2.055c-0.659,0.891-1.396,1.548-2.21,1.973 c-0.814,0.424-1.746,0.637-2.794,0.637c-1.749,0-3.172-0.64-4.271-1.918c-1.099-1.279-1.646-2.942-1.646-4.99 c0-2.268,0.669-4.145,2.008-5.627s3.021-2.226,5.05-2.226c1.219,0,2.243,0.27,3.072,0.81c0.829,0.539,1.473,1.354,1.933,2.441 L324.234,88.542z M317.326,110.137c1.329,0,2.458-0.557,3.387-1.664c0.929-1.109,1.396-2.487,1.396-4.138 c0-1.389-0.362-2.513-1.087-3.372c-0.725-0.857-1.672-1.289-2.84-1.289c-1.519,0-2.757,0.537-3.717,1.611 c-0.959,1.074-1.438,2.45-1.438,4.129c0,1.408,0.396,2.547,1.189,3.416S316.047,110.137,317.326,110.137z"></path> <path d="M328.004,111.77l1.813-13.712h2.383l-1.813,13.712H328.004z M329.967,91.568c0-0.439,0.162-0.818,0.487-1.139 c0.324-0.319,0.711-0.479,1.161-0.479c0.459,0,0.847,0.156,1.162,0.472c0.313,0.314,0.472,0.696,0.472,1.146 c0,0.471-0.157,0.865-0.472,1.185c-0.315,0.319-0.702,0.479-1.162,0.479c-0.45,0-0.837-0.162-1.161-0.486 C330.129,92.421,329.967,92.029,329.967,91.568z"></path> <path d="M347.088,101.609c-0.709-0.719-1.436-1.246-2.18-1.581c-0.745-0.335-1.551-0.502-2.42-0.502 c-1.601,0-2.902,0.56-3.911,1.679s-1.516,2.572-1.516,4.36c0,1.438,0.438,2.598,1.313,3.477c0.874,0.88,2.03,1.319,3.469,1.319 c0.699,0,1.384-0.143,2.055-0.42c0.669-0.279,1.407-0.744,2.218-1.396l-0.375,2.577c-0.54,0.4-1.184,0.705-1.927,0.914 c-0.743,0.21-1.552,0.314-2.421,0.314c-2.018,0-3.647-0.627-4.893-1.881c-1.245-1.255-1.866-2.898-1.866-4.938 c0-2.338,0.742-4.25,2.228-5.739c1.481-1.486,3.407-2.23,5.775-2.23c0.859,0,1.683,0.112,2.465,0.345 c0.784,0.229,1.563,0.584,2.33,1.063L347.088,101.609z"></path> <path d="M361.152,98.058h2.353l-1.798,13.712h-2.397l0.33-2.055c-0.658,0.891-1.396,1.548-2.21,1.973 c-0.813,0.424-1.739,0.637-2.778,0.637c-1.76,0-3.188-0.64-4.286-1.918c-1.101-1.279-1.648-2.942-1.648-4.99 c0-2.268,0.669-4.145,2.008-5.627c1.34-1.482,3.022-2.226,5.052-2.226c1.219,0,2.241,0.27,3.07,0.81 c0.829,0.539,1.476,1.354,1.935,2.441L361.152,98.058z M355.473,110.137c1.338,0,2.472-0.557,3.396-1.664 c0.924-1.109,1.386-2.487,1.386-4.138c0-1.389-0.362-2.513-1.086-3.372c-0.725-0.857-1.671-1.289-2.84-1.289 c-1.521,0-2.762,0.54-3.731,1.619c-0.969,1.078-1.454,2.453-1.454,4.121c0,1.408,0.402,2.547,1.207,3.416 C353.154,109.701,354.194,110.137,355.473,110.137z"></path> <path d="M374.497,111.77l1.109-8.422c0.028-0.21,0.053-0.422,0.065-0.631c0.017-0.211,0.022-0.413,0.022-0.613 c0-0.828-0.212-1.455-0.639-1.881c-0.425-0.426-1.052-0.639-1.881-0.639c-1.079,0-1.938,0.438-2.585,1.313 c-0.645,0.874-1.082,2.186-1.311,3.934l-0.931,6.938H366l1.828-13.712h2.278l-0.315,2.111c0.649-0.88,1.359-1.532,2.128-1.964 c0.771-0.429,1.608-0.644,2.52-0.644c0.919,0,1.696,0.228,2.338,0.682c0.639,0.454,1.063,1.087,1.272,1.896 c0.689-0.859,1.441-1.504,2.255-1.936c0.814-0.429,1.683-0.644,2.602-0.644c1.169,0,2.096,0.357,2.778,1.079 c0.687,0.719,1.027,1.696,1.027,2.938c0,0.289-0.035,0.748-0.104,1.378c-0.012,0.069-0.017,0.12-0.017,0.149l-1.139,8.662h-2.398 l1.109-8.406c0.03-0.211,0.053-0.42,0.067-0.63c0.014-0.21,0.021-0.42,0.021-0.63c0-0.828-0.212-1.455-0.637-1.881 s-1.054-0.639-1.881-0.639c-1.109,0-1.978,0.42-2.602,1.261c-0.625,0.839-1.057,2.169-1.296,3.984l-0.914,6.938h-2.427v0.005 H374.497z"></path> <path d="M389.445,105.476c0-2.248,0.737-4.128,2.218-5.644c1.479-1.514,3.317-2.271,5.515-2.271c1.988,0,3.631,0.627,4.932,1.88 c1.298,1.254,1.946,2.813,1.946,4.684c0,2.438-0.717,4.418-2.148,5.941c-1.435,1.521-3.284,2.285-5.554,2.285 c-2.088,0-3.762-0.629-5.021-1.89C390.074,109.206,389.445,107.543,389.445,105.476z M397.058,99.496 c-1.509,0-2.755,0.557-3.737,1.672c-0.984,1.113-1.478,2.529-1.478,4.248c0,1.508,0.427,2.727,1.281,3.648 c0.854,0.924,1.979,1.387,3.379,1.387c1.499,0,2.737-0.555,3.717-1.664c0.979-1.106,1.469-2.518,1.469-4.226 c0-1.479-0.433-2.692-1.297-3.644C399.528,99.971,398.417,99.496,397.058,99.496z"></path> <path d="M405.368,109.776l1.529-1.813c0.5,0.812,1.064,1.416,1.699,1.821c0.636,0.404,1.336,0.606,2.105,0.606 c0.858,0,1.541-0.197,2.045-0.594c0.504-0.395,0.757-0.926,0.757-1.596c0-0.75-0.709-1.449-2.128-2.098 c-0.359-0.17-0.645-0.313-0.854-0.42c-1.311-0.629-2.18-1.216-2.607-1.754c-0.43-0.539-0.645-1.221-0.645-2.037 c0-1.262,0.464-2.295,1.394-3.109s2.123-1.222,3.582-1.222c0.919,0,1.769,0.17,2.547,0.509c0.779,0.34,1.484,0.845,2.113,1.514 l-1.438,1.726c-0.42-0.562-0.915-0.981-1.482-1.269c-0.569-0.284-1.204-0.427-1.903-0.427c-0.689,0-1.274,0.197-1.753,0.592 c-0.479,0.396-0.719,0.862-0.719,1.401c0,0.739,0.849,1.474,2.547,2.203l0.24,0.104c1.349,0.579,2.253,1.153,2.712,1.726 c0.459,0.567,0.688,1.313,0.688,2.23c0,1.389-0.45,2.482-1.349,3.282c-0.899,0.799-2.128,1.198-3.688,1.198 c-1.157,0-2.178-0.209-3.057-0.629C406.826,111.305,406.047,110.656,405.368,109.776z"></path> <path d="M439.311,101.609c-0.709-0.719-1.436-1.246-2.18-1.581c-0.745-0.335-1.551-0.502-2.42-0.502 c-1.599,0-2.902,0.56-3.911,1.679s-1.514,2.572-1.514,4.36c0,1.438,0.437,2.598,1.312,3.477c0.874,0.88,2.03,1.319,3.471,1.319 c0.697,0,1.384-0.143,2.053-0.42c0.669-0.279,1.409-0.744,2.218-1.396l-0.375,2.577c-0.54,0.4-1.182,0.705-1.926,0.914 c-0.744,0.21-1.551,0.314-2.42,0.314c-2.02,0-3.649-0.627-4.895-1.881c-1.243-1.255-1.864-2.898-1.864-4.938 c0-2.338,0.74-4.25,2.226-5.739c1.483-1.486,3.409-2.23,5.777-2.23c0.857,0,1.681,0.112,2.465,0.345 c0.784,0.229,1.561,0.584,2.33,1.063L439.311,101.609z"></path> <path d="M443.604,111.77h-2.411l3.057-23.229h2.398L443.604,111.77z"></path> <path d="M460.471,98.058h2.354l-1.798,13.712h-2.397l0.33-2.055c-0.66,0.891-1.396,1.548-2.21,1.973 c-0.814,0.424-1.741,0.637-2.78,0.637c-1.758,0-3.187-0.64-4.286-1.918c-1.099-1.279-1.646-2.942-1.646-4.99 c0-2.268,0.669-4.145,2.008-5.627s3.022-2.226,5.05-2.226c1.22,0,2.243,0.27,3.072,0.81c0.829,0.539,1.474,1.354,1.933,2.441 L460.471,98.058z M454.792,110.137c1.338,0,2.47-0.557,3.394-1.664c0.926-1.109,1.388-2.487,1.388-4.138 c0-1.389-0.362-2.513-1.086-3.372c-0.727-0.857-1.671-1.289-2.84-1.289c-1.521,0-2.764,0.54-3.731,1.619 c-0.969,1.078-1.454,2.453-1.454,4.121c0,1.408,0.402,2.547,1.207,3.416S453.513,110.137,454.792,110.137z"></path> <path d="M473.906,100.291c-0.26-0.13-0.524-0.229-0.794-0.301c-0.271-0.069-0.54-0.104-0.812-0.104 c-1.049,0-1.88,0.439-2.495,1.318c-0.612,0.879-1.046,2.242-1.296,4.091l-0.869,6.476h-2.321l1.798-13.712h2.368l-0.375,2.173 c0.629-0.931,1.267-1.605,1.911-2.03c0.644-0.425,1.351-0.637,2.119-0.637c0.222,0,0.447,0.022,0.684,0.075 c0.233,0.05,0.467,0.125,0.697,0.225L473.906,100.291z"></path> <path d="M487.625,98.058h2.353l-1.798,13.712h-2.396l0.33-2.055c-0.66,0.891-1.396,1.548-2.21,1.973 c-0.814,0.424-1.741,0.637-2.78,0.637c-1.758,0-3.188-0.64-4.286-1.918c-1.099-1.279-1.646-2.942-1.646-4.99 c0-2.268,0.669-4.145,2.008-5.627s3.021-2.226,5.05-2.226c1.219,0,2.243,0.27,3.072,0.81c0.829,0.539,1.474,1.354,1.933,2.441 L487.625,98.058z M481.946,110.137c1.338,0,2.47-0.557,3.394-1.664c0.924-1.109,1.386-2.487,1.386-4.138 c0-1.389-0.36-2.513-1.086-3.372c-0.725-0.857-1.671-1.289-2.84-1.289c-1.519,0-2.762,0.54-3.729,1.619 c-0.971,1.078-1.454,2.453-1.454,4.121c0,1.408,0.4,2.547,1.207,3.416C479.627,109.701,480.667,110.137,481.946,110.137z"></path> <path d="M500.971,111.77l1.108-8.422c0.03-0.21,0.053-0.422,0.067-0.631c0.016-0.211,0.021-0.413,0.021-0.613 c0-0.828-0.212-1.455-0.637-1.881s-1.054-0.639-1.881-0.639c-1.079,0-1.94,0.438-2.585,1.313 c-0.646,0.874-1.082,2.186-1.313,3.934l-0.929,6.938h-2.354l1.828-13.712h2.278l-0.315,2.111c0.649-0.88,1.359-1.532,2.128-1.964 c0.771-0.429,1.608-0.644,2.52-0.644c0.919,0,1.698,0.228,2.338,0.682c0.639,0.454,1.063,1.087,1.272,1.896 c0.688-0.859,1.44-1.504,2.257-1.936c0.813-0.429,1.681-0.644,2.6-0.644c1.169,0,2.096,0.357,2.779,1.079 c0.686,0.719,1.025,1.696,1.025,2.938c0,0.289-0.033,0.748-0.104,1.378c-0.01,0.069-0.015,0.12-0.015,0.149l-1.141,8.662h-2.396 l1.106-8.406c0.03-0.211,0.054-0.42,0.067-0.63c0.016-0.21,0.021-0.42,0.021-0.63c0-0.828-0.212-1.455-0.637-1.881 s-1.052-0.639-1.881-0.639c-1.108,0-1.977,0.42-2.601,1.261c-0.624,0.839-1.058,2.169-1.297,3.984l-0.913,6.938h-2.425v0.005 H500.971z"></path> <path d="M529.301,105.311l-10.982,0.016v0.239c0,1.469,0.375,2.625,1.124,3.47c0.749,0.844,1.771,1.266,3.069,1.266 c0.812,0,1.556-0.193,2.233-0.584c0.679-0.391,1.339-0.992,1.978-1.813l1.648,1.349c-0.799,1.039-1.678,1.816-2.637,2.33 c-0.959,0.517-2.004,0.771-3.135,0.771c-2.047,0-3.674-0.616-4.877-1.852c-1.203-1.232-1.807-2.898-1.807-4.998 c0-2.288,0.699-4.184,2.099-5.688c1.398-1.504,3.151-2.255,5.262-2.255c1.919,0,3.405,0.584,4.466,1.753 c1.059,1.169,1.588,2.813,1.588,4.93c0,0.291-0.002,0.51-0.007,0.66S529.311,105.191,529.301,105.311z M527.023,103.363 c-0.021-1.239-0.357-2.193-1.014-2.863c-0.652-0.669-1.576-1.004-2.766-1.004c-1.179,0-2.195,0.352-3.049,1.049 c-0.854,0.699-1.412,1.641-1.672,2.818H527.023L527.023,103.363z"></path> <path d="M531.571,111.77l1.798-13.712h2.275l-0.313,2.231c0.77-0.93,1.574-1.616,2.413-2.061c0.839-0.445,1.759-0.667,2.757-0.667 c1.309,0,2.346,0.357,3.109,1.079c0.765,0.719,1.146,1.696,1.146,2.938c0,0.219-0.01,0.459-0.028,0.719 c-0.021,0.262-0.052,0.529-0.091,0.811l-1.139,8.662h-2.398l1.079-8.406c0.011-0.07,0.021-0.166,0.03-0.285 c0.06-0.49,0.09-0.813,0.09-0.975c0-0.818-0.25-1.443-0.75-1.873c-0.499-0.432-1.229-0.646-2.188-0.646 c-1.259,0-2.272,0.447-3.042,1.343c-0.771,0.896-1.271,2.194-1.499,3.902l-0.93,6.938L531.571,111.77L531.571,111.77z"></path> <path d="M548.468,111.77l1.544-11.721h-2.548l0.271-1.991h2.548l0.704-5.529h2.428l-0.734,5.529h3.015l-0.256,1.991h-3.027 l-1.543,11.721H548.468z"></path> <path d="M569.41,105.311l-10.984,0.016v0.239c0,1.469,0.375,2.625,1.124,3.47c0.749,0.844,1.772,1.266,3.071,1.266 c0.81,0,1.554-0.193,2.231-0.584c0.681-0.391,1.341-0.992,1.979-1.813l1.648,1.349c-0.801,1.039-1.68,1.816-2.639,2.33 c-0.959,0.517-2.004,0.771-3.133,0.771c-2.047,0-3.674-0.616-4.877-1.852c-1.204-1.232-1.807-2.898-1.807-4.998 c0-2.288,0.697-4.184,2.099-5.688c1.397-1.504,3.151-2.255,5.26-2.255c1.919,0,3.407,0.584,4.466,1.753 c1.061,1.169,1.59,2.813,1.59,4.93c0,0.291-0.004,0.51-0.009,0.66S569.42,105.191,569.41,105.311z M567.133,103.363 c-0.021-1.239-0.355-2.193-1.012-2.863c-0.654-0.669-1.576-1.004-2.766-1.004c-1.181,0-2.195,0.352-3.051,1.049 c-0.854,0.699-1.412,1.641-1.672,2.818H567.133L567.133,103.363z"></path> <path d="M579.166,109.776l1.529-1.813c0.5,0.812,1.064,1.416,1.701,1.821c0.634,0.404,1.336,0.606,2.104,0.606 c0.858,0,1.541-0.197,2.045-0.594c0.504-0.395,0.757-0.926,0.757-1.596c0-0.75-0.71-1.449-2.128-2.098 c-0.357-0.17-0.645-0.313-0.854-0.42c-1.312-0.629-2.181-1.216-2.607-1.754c-0.43-0.539-0.645-1.221-0.645-2.037 c0-1.262,0.464-2.295,1.393-3.109c0.93-0.814,2.123-1.222,3.582-1.222c0.919,0,1.769,0.17,2.547,0.509 c0.779,0.34,1.484,0.845,2.113,1.514l-1.438,1.726c-0.42-0.562-0.915-0.981-1.482-1.269c-0.569-0.284-1.204-0.427-1.902-0.427 c-0.688,0-1.273,0.197-1.754,0.592c-0.479,0.396-0.719,0.862-0.719,1.401c0,0.739,0.848,1.474,2.547,2.203l0.24,0.104 c1.348,0.579,2.252,1.153,2.712,1.726c0.46,0.567,0.688,1.313,0.688,2.23c0,1.389-0.45,2.482-1.349,3.282 c-0.899,0.799-2.128,1.198-3.688,1.198c-1.158,0-2.179-0.209-3.058-0.629C580.622,111.302,579.846,110.656,579.166,109.776z"></path> <path d="M594.175,98.058h2.397l-0.794,6.067c-0.021,0.16-0.052,0.392-0.092,0.689c-0.21,1.526-0.313,2.537-0.313,3.025 c0,0.739,0.256,1.313,0.765,1.725c0.511,0.41,1.229,0.615,2.158,0.615c1.229,0,2.122-0.33,2.683-0.99 c0.561-0.658,0.983-2.104,1.273-4.33l0.885-6.804h2.367l-0.93,6.968c-0.01,0.109-0.029,0.271-0.062,0.479 c-0.329,2.51-0.929,4.228-1.798,5.154c-0.52,0.55-1.167,0.97-1.939,1.26c-0.773,0.289-1.646,0.436-2.614,0.436 c-1.569,0-2.825-0.389-3.771-1.161c-0.943-0.774-1.416-1.8-1.416-3.079c0-0.49,0.114-1.648,0.346-3.479l0.028-0.21L594.175,98.058 z"></path> <path d="M606.86,109.776l1.526-1.813c0.5,0.812,1.066,1.416,1.701,1.821c0.635,0.404,1.336,0.606,2.105,0.606 c0.857,0,1.541-0.197,2.045-0.594c0.505-0.395,0.758-0.926,0.758-1.596c0-0.75-0.71-1.449-2.129-2.098 c-0.359-0.17-0.646-0.313-0.854-0.42c-1.309-0.629-2.178-1.216-2.605-1.754c-0.432-0.539-0.646-1.221-0.646-2.037 c0-1.262,0.465-2.295,1.396-3.109c0.929-0.814,2.123-1.222,3.581-1.222c0.92,0,1.77,0.17,2.548,0.509 c0.777,0.34,1.481,0.845,2.111,1.514l-1.438,1.726c-0.42-0.562-0.914-0.981-1.484-1.269c-0.566-0.284-1.203-0.427-1.9-0.427 c-0.689,0-1.273,0.197-1.754,0.592c-0.479,0.396-0.721,0.862-0.721,1.401c0,0.739,0.851,1.474,2.547,2.203l0.24,0.104 c1.35,0.579,2.253,1.153,2.713,1.726c0.459,0.567,0.689,1.313,0.689,2.23c0,1.389-0.45,2.482-1.352,3.282 c-0.896,0.799-2.127,1.198-3.686,1.198c-1.16,0-2.179-0.209-3.058-0.629C608.318,111.305,607.539,110.656,606.86,109.776z"></path> </g> <g> <path fill="#FFFFFF" d="M409.096,44.372h6.234c0.04,0.999,0.06,1.646,0.06,1.935c0,1.577-0.233,2.813-0.704,3.7 c-0.52,0.999-1.532,1.68-3.042,2.038c-1.509,0.359-4.114,0.539-7.821,0.539c-3.896,0-6.671-0.075-8.324-0.225 c-1.654-0.15-2.9-0.439-3.739-0.869c-0.75-0.39-1.309-0.914-1.679-1.573c-0.37-0.66-0.609-1.563-0.719-2.712 c-0.092-0.929-0.137-2.605-0.137-5.035c0-2.368,0.046-4.076,0.137-5.125c0.09-1.049,0.265-1.861,0.522-2.441 c0.57-1.298,1.726-2.142,3.462-2.525c1.738-0.385,5.245-0.577,10.521-0.577c2.638,0,4.556,0.062,5.755,0.182 c1.199,0.118,2.152,0.345,2.862,0.674c0.929,0.438,1.583,1.092,1.963,1.956c0.379,0.862,0.567,2.135,0.567,3.813 c0,0.09-0.005,0.431-0.015,1.021h-6.234c-0.028-0.681-0.07-1.136-0.127-1.364c-0.055-0.229-0.167-0.419-0.337-0.569 c-0.239-0.209-0.844-0.36-1.813-0.457c-0.971-0.095-2.438-0.142-4.406-0.142c-1.948,0-3.297,0.042-4.046,0.127 c-0.75,0.085-1.279,0.252-1.588,0.502c-0.37,0.299-0.627,0.804-0.772,1.513c-0.145,0.709-0.217,1.838-0.217,3.389 c0,1.549,0.065,2.64,0.195,3.272c0.13,0.635,0.379,1.092,0.75,1.371c0.35,0.271,0.904,0.45,1.671,0.54 c0.764,0.09,2.115,0.135,4.053,0.135c2.388,0,3.979-0.04,4.773-0.12c0.794-0.079,1.331-0.255,1.609-0.522 C408.881,46.465,409.076,45.651,409.096,44.372z"></path> <path fill="#FFFFFF" d="M417.547,31.814h6.549v15.24h14.553v5.215h-21.102V31.814z"></path> <path fill="#FFFFFF" d="M440.071,31.814h6.549V52.27h-6.549V31.814z"></path> <path fill="#FFFFFF" d="M449.482,31.814h22.656v4.81h-16.514v2.952H471.3v4.496h-15.675v3.282h16.634v4.915h-22.776V31.814z"></path> <path fill="#FFFFFF" d="M474.208,31.814h10.925l10.714,15.255h0.646l-0.15-15.255h6.339V52.27h-10.834l-10.76-15.255h-0.674 l0.135,15.255h-6.339L474.208,31.814L474.208,31.814z"></path> <path fill="#FFFFFF" d="M504.104,31.814h24.758v5.215h-9.098v15.24h-6.549v-15.24h-9.11L504.104,31.814L504.104,31.814z"></path> <path fill="#FFFFFF" d="M530.299,31.814h22.658v4.81h-16.514v2.952h15.674v4.496h-15.674v3.282h16.634v4.915h-22.778V31.814z"></path> <path fill="#FFFFFF" d="M554.306,45.496h6.039c-0.01,1.009,0.194,1.659,0.614,1.948c0.3,0.188,0.688,0.302,1.162,0.337 c0.475,0.035,1.971,0.063,4.488,0.083c2.637-0.01,4.221-0.027,4.75-0.052c0.527-0.025,0.947-0.104,1.259-0.232 c0.46-0.188,0.688-0.705,0.688-1.543c0-0.609-0.163-1.017-0.485-1.221c-0.324-0.205-0.986-0.317-1.985-0.337 c-0.771,0-2.396-0.062-4.886-0.182c-2.547-0.118-4.205-0.188-4.977-0.21c-1.499-0.05-2.648-0.19-3.454-0.427 c-0.805-0.234-1.432-0.617-1.881-1.146c-0.77-0.88-1.152-2.35-1.152-4.406c0-2.31,0.438-3.938,1.317-4.885 c0.669-0.739,1.697-1.211,3.086-1.417c1.391-0.205,4.211-0.309,8.469-0.309c3.008,0,5.119,0.085,6.34,0.255 c1.878,0.262,3.166,0.782,3.866,1.566c0.696,0.784,1.049,2.104,1.049,3.964c0,0.17-0.005,0.489-0.017,0.959h-6.039 c-0.021-0.569-0.066-0.959-0.143-1.169s-0.223-0.379-0.442-0.51c-0.27-0.16-0.743-0.263-1.423-0.309 c-0.68-0.045-2.119-0.065-4.314-0.065c-2.647,0-4.264,0.083-4.84,0.248c-0.58,0.165-0.869,0.622-0.869,1.371 c0,0.719,0.289,1.158,0.869,1.317c0.479,0.13,2.682,0.254,6.605,0.375c3.307,0.102,5.52,0.219,6.632,0.354 c1.114,0.135,2.001,0.392,2.659,0.771c0.75,0.449,1.279,1.066,1.589,1.853c0.312,0.785,0.465,1.911,0.465,3.379 c0,1.928-0.261,3.361-0.777,4.301c-0.392,0.689-0.934,1.204-1.626,1.543c-0.694,0.339-1.671,0.569-2.932,0.689 c-1.349,0.119-3.859,0.18-7.536,0.18c-3.077,0-5.352-0.08-6.817-0.24c-1.469-0.16-2.573-0.442-3.313-0.854 c-0.77-0.439-1.301-1.021-1.596-1.738s-0.442-1.813-0.442-3.282L554.306,45.496L554.306,45.496z"></path> <path fill="#FFFFFF" d="M581.805,46.83h6.549v5.44h-6.549V46.83z"></path> </g> <g> <path d="M631.145,92.314h10.927l10.714,15.255h0.645l-0.147-15.255h6.339v20.455h-10.834l-10.76-15.256h-0.677l0.137,15.256 h-6.339V92.314H631.145z"></path> <path d="M662.479,92.314h22.658v4.811h-16.515v2.951h15.676v4.496h-15.676v3.282h16.635v4.915h-22.778V92.314z"></path> <path d="M706.656,104.872h6.232c0.04,0.999,0.063,1.646,0.063,1.935c0,1.577-0.235,2.813-0.705,3.7 c-0.521,0.999-1.533,1.681-3.041,2.038c-1.51,0.359-4.117,0.539-7.823,0.539c-3.896,0-6.671-0.074-8.324-0.225 c-1.651-0.151-2.897-0.439-3.737-0.869c-0.749-0.39-1.311-0.914-1.68-1.573s-0.607-1.563-0.72-2.712 c-0.09-0.93-0.135-2.605-0.135-5.035c0-2.368,0.045-4.076,0.135-5.125c0.09-1.05,0.265-1.861,0.524-2.441 c0.568-1.301,1.724-2.143,3.462-2.525c1.736-0.384,5.245-0.577,10.52-0.577c2.64,0,4.558,0.062,5.755,0.182 c1.199,0.117,2.152,0.344,2.861,0.674c0.93,0.438,1.584,1.092,1.964,1.956c0.38,0.862,0.569,2.136,0.569,3.813 c0,0.09-0.005,0.431-0.018,1.021h-6.231c-0.03-0.682-0.072-1.137-0.128-1.364c-0.056-0.229-0.167-0.419-0.336-0.569 c-0.24-0.209-0.847-0.359-1.814-0.457c-0.969-0.095-2.438-0.143-4.405-0.143c-1.946,0-3.297,0.043-4.046,0.127 c-0.75,0.086-1.277,0.253-1.588,0.503c-0.37,0.3-0.627,0.804-0.771,1.513c-0.146,0.71-0.22,1.839-0.22,3.389 c0,1.549,0.065,2.641,0.195,3.273s0.379,1.092,0.75,1.371c0.35,0.271,0.906,0.449,1.67,0.539c0.766,0.09,2.115,0.135,4.055,0.135 c2.389,0,3.979-0.039,4.771-0.119c0.795-0.079,1.332-0.256,1.611-0.523C706.441,106.965,706.637,106.15,706.656,104.872z"></path> <path d="M715.108,92.314h22.656v4.811H721.25v2.951h15.676v4.496H721.25v3.282h16.635v4.915h-22.776V92.314z"></path> <path d="M739.115,105.996h6.039c-0.012,1.01,0.193,1.658,0.613,1.948c0.301,0.188,0.688,0.302,1.16,0.337 c0.476,0.035,1.973,0.063,4.488,0.082c2.638-0.01,4.221-0.027,4.751-0.052c0.529-0.024,0.948-0.104,1.259-0.232 c0.459-0.188,0.689-0.704,0.689-1.544c0-0.609-0.162-1.016-0.487-1.221s-0.987-0.317-1.985-0.338c-0.77,0-2.396-0.062-4.885-0.182 c-2.549-0.119-4.207-0.188-4.977-0.209c-1.498-0.051-2.649-0.191-3.453-0.428c-0.807-0.234-1.434-0.617-1.881-1.146 c-0.771-0.88-1.154-2.349-1.154-4.404c0-2.31,0.439-3.938,1.318-4.886c0.67-0.738,1.697-1.213,3.088-1.416 c1.389-0.205,4.212-0.308,8.468-0.308c3.007,0,5.119,0.084,6.338,0.254c1.879,0.262,3.168,0.782,3.867,1.566 s1.049,2.104,1.049,3.964c0,0.17-0.006,0.489-0.016,0.959h-6.039c-0.021-0.569-0.066-0.959-0.145-1.169 c-0.072-0.21-0.222-0.379-0.439-0.51c-0.271-0.16-0.744-0.264-1.424-0.309c-0.682-0.045-2.117-0.066-4.315-0.066 c-2.646,0-4.261,0.083-4.841,0.248c-0.579,0.164-0.869,0.621-0.869,1.371c0,0.719,0.29,1.157,0.869,1.316 c0.479,0.131,2.683,0.255,6.608,0.375c3.308,0.102,5.518,0.217,6.632,0.354c1.111,0.135,2,0.393,2.659,0.771 c0.748,0.449,1.277,1.066,1.589,1.853c0.31,0.783,0.465,1.908,0.465,3.379c0,1.929-0.261,3.36-0.779,4.301 c-0.39,0.688-0.932,1.204-1.626,1.544s-1.671,0.569-2.93,0.688c-1.351,0.119-3.861,0.181-7.538,0.181 c-3.076,0-5.351-0.08-6.818-0.239c-1.469-0.16-2.572-0.445-3.312-0.854c-0.771-0.439-1.303-1.021-1.598-1.738 s-0.44-1.813-0.44-3.281L739.115,105.996L739.115,105.996z"></path> <path d="M766.314,92.314h6.549v20.455h-6.549V92.314z"></path> <path d="M775.725,112.77V92.314h14.764c2.615,0,4.33,0.02,5.14,0.06c0.812,0.04,1.653,0.149,2.532,0.33 c2.049,0.419,3.382,1.579,4.002,3.479c0.229,0.72,0.384,1.489,0.464,2.313s0.12,2.07,0.12,3.738c0,1.828-0.047,3.213-0.145,4.149 c-0.095,0.938-0.271,1.796-0.529,2.563c-0.609,1.798-1.863,2.907-3.764,3.327c-0.89,0.199-1.838,0.332-2.848,0.396 c-1.009,0.065-2.662,0.1-4.96,0.1L775.725,112.77L775.725,112.77z M781.869,107.555h8.677c1.599,0,2.774-0.055,3.529-0.157 c0.754-0.104,1.286-0.287,1.596-0.548c0.339-0.289,0.579-0.748,0.72-1.378c0.142-0.632,0.209-1.579,0.209-2.849 s-0.06-2.224-0.18-2.861c-0.119-0.641-0.33-1.131-0.629-1.471c-0.34-0.369-0.832-0.604-1.477-0.711 c-0.646-0.104-1.922-0.158-3.828-0.158h-8.617V107.555L781.869,107.555z"></path> <path d="M826.885,112.77l-1.752-3.461H811.6l-1.753,3.461h-7.118l10.852-20.455h9.681l10.7,20.455H826.885z M822.944,104.827 l-3.941-7.747h-1.243l-3.939,7.747H822.944z"></path> <path d="M834.888,112.77V92.314h14.763c2.615,0,4.331,0.02,5.141,0.06c0.809,0.04,1.652,0.149,2.532,0.33 c2.048,0.419,3.382,1.579,4.001,3.479c0.229,0.72,0.385,1.489,0.465,2.313s0.119,2.07,0.119,3.738 c0,1.828-0.047,3.213-0.145,4.149c-0.094,0.938-0.271,1.796-0.529,2.563c-0.609,1.798-1.863,2.907-3.764,3.327 c-0.889,0.199-1.838,0.332-2.848,0.396c-1.008,0.065-2.662,0.1-4.959,0.1L834.888,112.77L834.888,112.77z M841.031,107.555h8.678 c1.598,0,2.774-0.055,3.529-0.157c0.754-0.104,1.285-0.287,1.596-0.548c0.339-0.289,0.579-0.748,0.719-1.378 c0.143-0.632,0.21-1.579,0.21-2.849s-0.06-2.224-0.18-2.861c-0.12-0.641-0.33-1.131-0.63-1.471 c-0.34-0.369-0.832-0.604-1.478-0.711c-0.645-0.104-1.921-0.158-3.827-0.158h-8.617V107.555z"></path> <path d="M864.364,92.314h22.658v4.811h-16.517v2.951h15.676v4.496h-15.676v3.282h16.635v4.915h-22.776V92.314L864.364,92.314z"></path> <path d="M888.371,105.996h6.039c-0.01,1.01,0.195,1.658,0.615,1.948c0.299,0.188,0.686,0.302,1.158,0.337 c0.476,0.035,1.973,0.063,4.488,0.082c2.638-0.01,4.221-0.027,4.751-0.052c0.529-0.024,0.948-0.104,1.259-0.232 c0.459-0.188,0.689-0.704,0.689-1.544c0-0.609-0.162-1.016-0.487-1.221s-0.987-0.317-1.983-0.338 c-0.771,0-2.398-0.062-4.887-0.182c-2.549-0.119-4.207-0.188-4.977-0.209c-1.498-0.051-2.649-0.191-3.453-0.428 c-0.805-0.234-1.432-0.617-1.881-1.146c-0.771-0.88-1.154-2.349-1.154-4.404c0-2.31,0.439-3.938,1.318-4.886 c0.67-0.738,1.697-1.213,3.088-1.416c1.389-0.205,4.212-0.308,8.468-0.308c3.007,0,5.119,0.084,6.338,0.254 c1.879,0.262,3.168,0.782,3.867,1.566s1.049,2.104,1.049,3.964c0,0.17-0.006,0.489-0.016,0.959h-6.039 c-0.021-0.569-0.066-0.959-0.144-1.169c-0.073-0.21-0.223-0.379-0.44-0.51c-0.271-0.16-0.744-0.264-1.424-0.309 c-0.681-0.045-2.117-0.066-4.315-0.066c-2.646,0-4.261,0.083-4.841,0.248c-0.579,0.164-0.869,0.621-0.869,1.371 c0,0.719,0.29,1.157,0.869,1.316c0.479,0.131,2.683,0.255,6.609,0.375c3.307,0.102,5.517,0.217,6.631,0.354 c1.112,0.135,2,0.393,2.66,0.771c0.749,0.449,1.276,1.066,1.588,1.853c0.31,0.783,0.465,1.908,0.465,3.379 c0,1.929-0.26,3.36-0.779,4.301c-0.39,0.688-0.932,1.204-1.626,1.544c-0.692,0.34-1.671,0.569-2.93,0.688 c-1.35,0.119-3.861,0.181-7.538,0.181c-3.076,0-5.35-0.08-6.818-0.239c-1.469-0.16-2.57-0.445-3.312-0.854 c-0.771-0.439-1.302-1.021-1.596-1.738c-0.297-0.719-0.442-1.813-0.442-3.281L888.371,105.996L888.371,105.996z"></path> <path d="M915.869,107.33h6.549v5.439h-6.549V107.33z"></path> </g> </g> <g id="Layer_2"> </g> <path fill="none" stroke="#000000" stroke-width="3" stroke-miterlimit="10" d="M612.936,10.982H84.943 c-16.57,0-30.004,13.434-30.004,30.005l0,0c0,16.57,13.434,30.004,30.004,30.004h527.992L612.936,10.982L612.936,10.982z"></path> <path fill="none" stroke="#000000" stroke-width="3" stroke-miterlimit="10" d="M263.939,131H911.93 c16.571,0,30.006-13.434,30.006-30.005l0,0c0-16.57-13.435-30.004-30.006-30.004H263.939V131z"></path> </svg> 