<?xml version="1.0" encoding="UTF-8"?> <!-- Generator: Adobe Illustrator 16.0.0, SVG Export Plug-In . SVG Version: 6.00 Build 0) --> <svg xmlns="http://www.w3.org/2000/svg" xmlns:xlink="http://www.w3.org/1999/xlink" id="Layer_1" x="0px" y="0px" width="1920px" height="1080px" viewBox="0 0 1920 1080" xml:space="preserve"> <path fill-rule="evenodd" clip-rule="evenodd" fill="#BE0026" d="M538.313,796.791c10.482,10.479,26.667,16.208,39.996,16.208 c13.335,0,29.52-5.729,40.001-16.208c11.117-10.08,25.569-24.178,40.654-39.479c14.406-14.185,30.478-30.666,45.426-46.515 c3.785-4.02,5.735-6.021,5.735-14.225v-55.151l-58.196,58.196l-29.209,29.206c-24.44,24.446-64.376,24.446-88.816,0l-26.969-26.966 l-60.437-60.437v55.151c0,8.204,1.959,10.211,5.738,14.225c14.937,15.849,31.008,32.318,45.412,46.497 C512.732,772.602,527.193,786.705,538.313,796.791L538.313,796.791z M710.125,438.585v-55.157c0-8.198-1.95-10.205-5.735-14.225 c-14.92-15.832-30.979-32.285-45.369-46.452c-15.102-15.324-29.583-29.452-40.711-39.542 c-10.481-10.479-26.666-16.208-40.001-16.208c-13.329,0-29.514,5.729-39.996,16.208c-11.807,10.712-27.375,25.945-43.467,42.342 v-0.08c-13.665,13.534-28.633,28.904-42.609,43.732c-3.779,4.014-5.738,6.026-5.738,14.225v55.157l48.348-48.345l0,0l39.058-39.058 c24.44-24.446,64.373-24.446,88.816,0l30.087,30.078L710.125,438.585z"></path> <g> <g> <path d="M772.38,511.25h32.079c-0.057,5.364,1.032,8.813,3.268,10.353c1.59,1.009,3.643,1.603,6.168,1.784 c2.52,0.188,10.467,0.343,23.842,0.445c14.013-0.052,22.428-0.148,25.238-0.285c2.811-0.131,5.039-0.541,6.682-1.226 c2.445-1.009,3.666-3.745,3.666-8.204c0-3.238-0.867-5.398-2.589-6.487s-5.245-1.688-10.547-1.79 c-4.087,0-12.735-0.319-25.956-0.958c-13.529-0.633-22.337-1.003-26.425-1.117c-7.964-0.263-14.081-1.015-18.352-2.264 c-4.275-1.249-7.6-3.278-9.993-6.089c-4.088-4.675-6.129-12.474-6.129-23.408c0-12.263,2.332-20.911,7-25.951 c3.563-3.928,9.031-6.437,16.408-7.525c7.371-1.089,22.371-1.636,44.98-1.636c15.969,0,27.194,0.456,33.67,1.356 c9.978,1.38,16.824,4.15,20.541,8.318c3.712,4.167,5.576,11.186,5.576,21.06c0,0.906-0.029,2.6-0.08,5.097h-32.085 c-0.108-3.027-0.359-5.097-0.753-6.215c-0.404-1.111-1.186-2.012-2.354-2.707c-1.431-0.844-3.95-1.392-7.56-1.631 c-3.614-0.239-11.254-0.354-22.93-0.354c-14.064,0-22.633,0.434-25.717,1.311c-3.078,0.879-4.618,3.302-4.618,7.286 c0,3.82,1.54,6.151,4.618,7.007c2.549,0.684,14.252,1.352,35.112,1.984c17.565,0.535,29.31,1.157,35.227,1.875 c5.918,0.713,10.627,2.081,14.133,4.1c3.979,2.389,6.796,5.666,8.438,9.834c1.642,4.162,2.469,10.147,2.469,17.947 c0,10.244-1.38,17.866-4.14,22.85c-2.074,3.665-4.953,6.396-8.637,8.197c-3.693,1.808-8.882,3.027-15.563,3.666 c-7.166,0.639-20.519,0.952-40.05,0.952c-16.345,0-28.42-0.422-36.219-1.271c-7.805-0.85-13.671-2.36-17.593-4.538 c-4.088-2.332-6.915-5.416-8.478-9.229c-1.573-3.825-2.349-9.635-2.349-17.439V511.25z"></path> <path d="M916.872,438.567h120.365v25.558h-87.722v15.684h83.27v23.876h-83.27v17.439h88.366v26.11h-121.01V438.567z"></path> <path d="M1114.224,485.618h75.71c0.103,1.75,0.159,2.736,0.159,2.947c0,15.336-0.398,26.88-1.197,34.628 c-1.277,12.525-8.386,20.113-21.333,22.764c-5.575,1.118-11.955,1.876-19.144,2.275c-7.195,0.394-18.17,0.593-32.924,0.593 c-18.682,0-31.897-0.502-39.645-1.511c-7.754-1.009-13.877-3.027-18.386-6.049c-3.085-2.075-5.444-4.721-7.087-7.965 c-1.653-3.232-2.787-7.508-3.426-12.815c-0.639-4.932-0.952-14.697-0.952-29.292c0-9.926,0.262-17.41,0.792-22.45 c0.524-5.046,1.563-9.555,3.102-13.54c3.13-8.387,9.795-13.478,19.982-15.279c11.145-1.967,28.266-2.953,51.354-2.953 c13.688,0,24.521,0.354,32.479,1.038c7.959,0.695,14.515,1.836,19.663,3.427c8.329,2.594,13.374,8.221,15.125,16.881 c0.849,4.298,1.305,10.216,1.356,17.747h-33.117c-0.058-3.079-0.245-5.165-0.559-6.249c-0.319-1.089-0.986-2.006-1.989-2.748 c-1.865-1.322-5.73-2.148-11.625-2.468c-5.57-0.313-13.643-0.474-24.207-0.474c-11.459,0-19.645,0.263-24.554,0.793 c-4.908,0.535-8.272,1.511-10.073,2.947c-1.802,1.482-3.021,3.91-3.66,7.28c-0.639,3.375-0.952,9.145-0.952,17.319 c0,9.179,0.313,15.587,0.952,19.224c0.639,3.638,1.858,6.197,3.66,7.686c1.801,1.425,4.155,2.292,7.046,2.582 c2.891,0.291,12.035,0.548,27.422,0.759c15.079-0.104,24.229-0.251,27.474-0.434c3.232-0.193,5.838-0.679,7.799-1.482 c1.59-0.684,2.719-1.813,3.387-3.381c0.661-1.562,0.991-3.91,0.991-7.041c0-0.479-0.028-1.487-0.079-3.026h-43.545V485.618z"></path> <path d="M1319.614,547.234l-9.31-18.392h-71.89l-9.316,18.392h-37.814l57.638-108.667h51.429l56.845,108.667H1319.614z M1298.675,505.041l-20.935-41.161h-6.607l-20.94,41.161H1298.675z"></path> <path d="M1362.127,547.234V438.567h80.014c18.784,0.058,30.038,0.251,33.75,0.599c3.717,0.342,7.297,1.579,10.752,3.7 c4.139,2.491,6.978,5.935,8.518,10.308c1.539,4.378,2.303,11.265,2.303,20.66c0,7.907-0.49,13.723-1.471,17.439 c-0.98,3.711-2.827,6.682-5.53,8.91c-2.924,2.389-7.325,4.037-13.221,4.938c6.955,0.53,11.949,2.52,14.971,5.975 c1.751,2.064,2.868,4.572,3.342,7.52c0.479,2.947,0.724,9.11,0.724,18.512v10.107h-32.644v-5.809 c0-6.049-0.229-10.365-0.679-12.936c-0.45-2.577-1.289-4.55-2.509-5.936c-1.22-1.271-2.907-2.08-5.051-2.429 c-2.155-0.342-6.653-0.513-13.5-0.513h-46.651v27.621H1362.127z M1395.244,492.465h46.571c8.124-0.165,12.964-0.308,14.532-0.439 c1.567-0.131,2.907-0.541,4.019-1.236c1.432-0.896,2.44-2.24,3.021-4.014c0.588-1.784,0.879-4.476,0.879-8.084 c0-3.558-0.331-6.214-0.992-7.965c-0.662-1.75-1.819-3.021-3.461-3.813c-1.174-0.536-2.565-0.855-4.185-0.958 c-1.619-0.108-6.242-0.188-13.894-0.239h-46.491V492.465z"></path> </g> <g> <path fill="#BE0026" d="M772.346,621.068h18.813c-0.033,3.142,0.61,5.171,1.91,6.066c0.936,0.598,2.144,0.945,3.62,1.055 c1.482,0.107,6.14,0.193,13.985,0.256c8.221-0.028,13.152-0.085,14.799-0.165c1.648-0.074,2.959-0.313,3.923-0.719 c1.431-0.593,2.149-2.194,2.149-4.812c0-1.898-0.508-3.17-1.522-3.803c-1.003-0.639-3.073-0.992-6.18-1.055 c-2.4,0-7.474-0.182-15.228-0.559c-7.93-0.376-13.101-0.593-15.501-0.655c-4.663-0.154-8.249-0.593-10.758-1.328 c-2.509-0.729-4.458-1.922-5.86-3.569c-2.395-2.742-3.598-7.32-3.598-13.728c0-7.189,1.374-12.269,4.11-15.222 c2.087-2.304,5.296-3.78,9.624-4.413c4.32-0.639,13.117-0.958,26.372-0.958c9.372,0,15.957,0.269,19.749,0.793 c5.854,0.81,9.868,2.439,12.051,4.88c2.179,2.446,3.268,6.562,3.268,12.349c0,0.53-0.018,1.527-0.046,2.987h-18.813 c-0.063-1.773-0.211-2.987-0.444-3.638c-0.239-0.655-0.696-1.186-1.38-1.584c-0.838-0.502-2.32-0.821-4.436-0.964 c-2.115-0.137-6.596-0.205-13.448-0.205c-8.249,0-13.272,0.256-15.079,0.764c-1.808,0.519-2.703,1.944-2.703,4.275 c0,2.241,0.896,3.614,2.703,4.104c1.493,0.405,8.357,0.799,20.592,1.169c10.302,0.313,17.188,0.679,20.654,1.101 c3.479,0.416,6.237,1.226,8.289,2.4c2.338,1.402,3.985,3.329,4.955,5.764c0.957,2.445,1.447,5.957,1.447,10.535 c0,6.003-0.814,10.473-2.434,13.397c-1.215,2.149-2.902,3.751-5.068,4.812c-2.16,1.055-5.199,1.773-9.121,2.144 c-4.202,0.382-12.029,0.564-23.482,0.564c-9.59,0-16.67-0.251-21.242-0.747c-4.584-0.496-8.021-1.385-10.325-2.662 c-2.394-1.374-4.059-3.176-4.972-5.422c-0.917-2.234-1.373-5.644-1.373-10.222V621.068z"></path> <path fill="#BE0026" d="M857.086,578.441h70.589v14.988h-51.451v9.196h48.835v14.007h-48.835v10.228h51.822v15.313h-70.96V578.441 z"></path> <path fill="#BE0026" d="M972.827,606.041h44.399c0.063,1.02,0.097,1.602,0.097,1.721c0,8.997-0.233,15.77-0.701,20.313 c-0.746,7.343-4.92,11.795-12.514,13.346c-3.267,0.661-7.012,1.101-11.23,1.334c-4.213,0.239-10.649,0.354-19.298,0.354 c-10.964,0-18.717-0.302-23.261-0.89c-4.543-0.587-8.141-1.772-10.78-3.546c-1.808-1.214-3.192-2.771-4.156-4.669 c-0.963-1.898-1.636-4.406-2.007-7.52c-0.376-2.891-0.559-8.62-0.559-17.178c0-5.82,0.154-10.21,0.462-13.169 c0.313-2.959,0.924-5.599,1.818-7.936c1.842-4.92,5.753-7.913,11.728-8.962c6.533-1.157,16.566-1.733,30.112-1.733 c8.033,0,14.378,0.205,19.048,0.61c4.674,0.404,8.511,1.071,11.532,2.007c4.886,1.522,7.845,4.828,8.871,9.896 c0.496,2.521,0.764,5.992,0.792,10.416h-19.417c-0.034-1.813-0.148-3.033-0.331-3.672c-0.188-0.633-0.576-1.174-1.163-1.607 c-1.095-0.781-3.363-1.26-6.818-1.448c-3.272-0.182-8.004-0.279-14.195-0.279c-6.722,0-11.521,0.16-14.4,0.468 c-2.88,0.308-4.852,0.89-5.912,1.728c-1.055,0.872-1.773,2.297-2.144,4.27c-0.371,1.979-0.559,5.365-0.559,10.154 c0,5.387,0.188,9.149,0.559,11.276c0.37,2.138,1.089,3.637,2.144,4.504c1.061,0.844,2.435,1.345,4.133,1.521 c1.699,0.171,7.058,0.319,16.089,0.445c8.836-0.063,14.207-0.148,16.105-0.257s3.42-0.404,4.572-0.866 c0.94-0.405,1.596-1.066,1.989-1.984c0.388-0.918,0.581-2.298,0.581-4.133c0-0.28-0.017-0.872-0.045-1.779h-25.541V606.041z"></path> <path fill="#BE0026" d="M1024.655,578.441h19.418v29.275c0.097,6.722,0.324,10.969,0.707,12.747 c0.49,2.485,2.104,4.128,4.828,4.903c2.725,0.781,8.227,1.163,16.505,1.163c6.722,0,11.385-0.188,13.984-0.582 c2.594-0.388,4.44-1.157,5.53-2.309c0.718-0.815,1.22-1.79,1.521-2.942c0.297-1.151,0.52-3.129,0.673-5.929 c0.154-2.861,0.233-5.216,0.233-7.052v-29.275h19.424v29.275c-0.217,10.176-0.547,16.841-0.98,19.982 c-0.775,5.358-3.33,9.275-7.656,11.767c-2.457,1.431-5.93,2.399-10.416,2.896c-4.48,0.496-11.841,0.747-22.08,0.747 c-7.69,0-13.619-0.137-17.793-0.422c-4.167-0.279-7.793-0.775-10.872-1.493c-6.818-1.619-10.803-5.73-11.954-12.326 c-0.439-2.52-0.707-4.812-0.816-6.863c-0.107-2.059-0.193-6.818-0.256-14.287V578.441z"></path> <path fill="#BE0026" d="M1116.116,642.174v-63.732h46.926c11.02,0.029,17.615,0.148,19.793,0.349 c2.178,0.205,4.282,0.929,6.3,2.172c2.435,1.465,4.094,3.478,5,6.049c0.901,2.565,1.356,6.607,1.356,12.114 c0,4.641-0.29,8.045-0.866,10.228c-0.575,2.173-1.659,3.923-3.243,5.228c-1.711,1.403-4.299,2.366-7.754,2.896 c4.076,0.309,7.001,1.477,8.779,3.501c1.026,1.214,1.682,2.685,1.961,4.412c0.279,1.722,0.417,5.348,0.417,10.854v5.93h-19.139 v-3.404c0-3.551-0.131-6.082-0.394-7.594c-0.273-1.51-0.758-2.668-1.471-3.477c-0.719-0.747-1.71-1.221-2.971-1.42 c-1.254-0.205-3.894-0.303-7.912-0.303h-27.359v16.197H1116.116z M1135.54,610.049h27.313c4.761-0.092,7.6-0.178,8.522-0.257 c0.912-0.074,1.699-0.313,2.36-0.719c0.833-0.536,1.426-1.316,1.773-2.36c0.336-1.043,0.507-2.622,0.507-4.737 c0-2.087-0.193-3.643-0.581-4.675c-0.394-1.021-1.066-1.773-2.029-2.234c-0.685-0.314-1.505-0.502-2.452-0.564 c-0.951-0.063-3.665-0.108-8.146-0.143h-27.268V610.049z"></path> <path fill="#BE0026" d="M1202.162,578.441h20.409v63.732h-20.409V578.441z"></path> <path fill="#BE0026" d="M1231.488,642.174v-63.732h45.995c8.146,0,13.489,0.063,16.009,0.188c2.525,0.12,5.147,0.468,7.89,1.026 c6.386,1.306,10.542,4.914,12.469,10.832c0.719,2.24,1.197,4.646,1.448,7.217c0.245,2.561,0.37,6.448,0.37,11.647 c0,5.695-0.148,10.006-0.444,12.931c-0.291,2.924-0.844,5.586-1.653,7.986c-1.898,5.599-5.804,9.054-11.722,10.365 c-2.771,0.621-5.724,1.037-8.87,1.236c-3.147,0.2-8.295,0.303-15.45,0.303H1231.488z M1250.632,625.926h27.034 c4.978,0,8.643-0.166,10.991-0.49c2.355-0.325,4.008-0.89,4.978-1.705c1.061-0.906,1.802-2.337,2.24-4.293 c0.434-1.961,0.655-4.926,0.655-8.87c0-3.957-0.188-6.927-0.559-8.923c-0.382-1.989-1.031-3.518-1.967-4.577 c-1.061-1.151-2.594-1.888-4.595-2.212c-2.007-0.331-5.986-0.496-11.927-0.496h-26.852V625.926z"></path> <path fill="#BE0026" d="M1390.888,642.174l-5.461-10.787h-42.159l-5.467,10.787h-22.177l33.801-63.732h30.164l33.34,63.732 H1390.888z M1378.608,617.432l-12.28-24.139h-3.876l-12.275,24.139H1378.608z"></path> <path fill="#BE0026" d="M1415.819,642.174v-63.732h45.989c8.153,0,13.495,0.063,16.015,0.188c2.52,0.12,5.147,0.468,7.89,1.026 c6.386,1.306,10.542,4.914,12.469,10.832c0.712,2.24,1.197,4.646,1.448,7.217c0.244,2.561,0.37,6.448,0.37,11.647 c0,5.695-0.148,10.006-0.444,12.931c-0.291,2.924-0.85,5.586-1.653,7.986c-1.904,5.599-5.804,9.054-11.728,10.365 c-2.765,0.621-5.724,1.037-8.865,1.236c-3.146,0.2-8.301,0.303-15.455,0.303H1415.819z M1434.957,625.926h27.034 c4.982,0,8.648-0.166,10.997-0.49c2.354-0.325,4.008-0.89,4.978-1.705c1.055-0.906,1.801-2.337,2.234-4.293 c0.439-1.961,0.661-4.926,0.661-8.87c0-3.957-0.188-6.927-0.563-8.923c-0.377-1.989-1.027-3.518-1.962-4.577 c-1.061-1.151-2.594-1.888-4.595-2.212c-2.013-0.331-5.986-0.496-11.933-0.496h-26.852V625.926z"></path> </g> </g> <path fill-rule="evenodd" clip-rule="evenodd" d="M420,483.937l34.984-34.987l62.463-62.461l25.883-25.882 c19.24-19.241,50.725-19.241,69.966,0l31.142,31.139l57.198,57.204l34.987,34.987l-34.987,34.976l-11.19,11.196l-46.168-46.172 l-65.969-65.967l-65.958,65.967l65.958,65.96l46.176,46.179l-11.188,11.186l-34.987,34.981l-34.979-34.981l-88.346-88.349 L420,483.937L420,483.937z M736.623,596.075l-34.987-34.987l-88.34-88.343l-34.987-34.987l-34.979,34.987l-11.193,11.191 l46.172,46.172l65.969,65.967l-65.969,65.955l-65.958-65.955l-46.173-46.179l-11.193,11.191L420,596.075l34.984,34.976 l57.204,57.204l31.142,31.139c19.24,19.241,50.725,19.241,69.966,0l25.88-25.882l62.46-62.461L736.623,596.075z"></path> </svg> 